<svg width="65" height="65" viewBox="0 0 65 65" fill="none" xmlns="http://www.w3.org/2000/svg">
<path d="M48.75 57.875H49.75V56.875V42.6562C49.75 42.3827 49.8587 42.1204 50.052 41.927C50.2454 41.7337 50.5077 41.625 50.7812 41.625H54.8438C55.1173 41.625 55.3796 41.7337 55.573 41.927C55.7663 42.1204 55.875 42.3827 55.875 42.6562V58.9062C55.875 60.2572 55.3383 61.5528 54.3831 62.5081C53.4278 63.4633 52.1322 64 50.7812 64H6.09375C4.7428 64 3.44719 63.4633 2.49192 62.5081C1.53666 61.5528 1 60.2572 1 58.9062V14.2188C1 12.8678 1.53666 11.5722 2.49192 10.6169C3.44719 9.66166 4.7428 9.125 6.09375 9.125H26.4062C26.6798 9.125 26.9421 9.23365 27.1355 9.42705C27.3289 9.62044 27.4375 9.88275 27.4375 10.1562V14.2188C27.4375 14.4923 27.3289 14.7546 27.1355 14.948C26.9421 15.1414 26.6798 15.25 26.4062 15.25H8.125H7.125V16.25V56.875V57.875H8.125H48.75ZM48.7879 10.4484L49.4953 9.74124L48.7881 9.03401L44.253 4.49891C44.2529 4.4988 44.2527 4.49869 44.2526 4.49858C42.9684 3.21042 43.8844 1 45.7031 1H61.9531C62.496 1 63.0166 1.21565 63.4005 1.59952C63.7843 1.98338 64 2.50401 64 3.04688V19.2969C64 21.1243 61.7843 22.0302 60.502 20.748L60.5016 20.7476L55.9669 16.2179L55.2597 15.5115L54.5529 16.2184L23.6259 47.1543L23.6248 47.1554C23.4346 47.3463 23.2086 47.4977 22.9598 47.601C22.711 47.7043 22.4443 47.7575 22.1749 47.7575C21.9055 47.7575 21.6388 47.7043 21.39 47.601C21.1412 47.4977 20.9152 47.3463 20.725 47.1554L20.7232 47.1536L17.8452 44.2806L17.8445 44.28C17.6537 44.0899 17.5023 43.8639 17.399 43.6151C17.2957 43.3663 17.2425 43.0996 17.2425 42.8302C17.2425 42.5608 17.2957 42.294 17.399 42.0452C17.5023 41.7964 17.6537 41.5705 17.8446 41.3803L17.8456 41.3792L48.7879 10.4484Z" fill="#FFE221" stroke="#2B2B2B" stroke-width="2"/>
</svg>
