<svg width="68" height="68" viewBox="0 0 68 68" fill="none" xmlns="http://www.w3.org/2000/svg">
<path d="M8.40039 0.400391C4.00116 0.400391 0.400391 4.00117 0.400391 8.40039V59.6004C0.400391 63.9996 4.00116 67.6004 8.40039 67.6004H35.3316C35.5044 67.629 35.6807 67.629 35.8535 67.6004H44.9316C45.1044 67.629 45.2807 67.629 45.4535 67.6004H59.6004C63.9996 67.6004 67.6004 63.9996 67.6004 59.6004V8.40039C67.6004 4.00117 63.9996 0.400391 59.6004 0.400391H8.40039ZM8.40039 3.60039H59.6004C62.27 3.60039 64.4004 5.73082 64.4004 8.40039V59.6004C64.4004 62.27 62.27 64.4004 59.6004 64.4004H46.8004V42.0004H52.9129L55.1535 30.8004H46.8004V27.6004C46.8004 26.7084 46.8853 26.6387 47.1848 26.4441C47.4843 26.2496 48.4097 26.0004 50.0004 26.0004H54.8004V16.991L53.8879 16.5566C53.8879 16.5566 50.2126 14.8004 45.2004 14.8004C41.6004 14.8004 38.6429 16.2347 36.7504 18.6004C34.8578 20.9661 34.0004 24.1337 34.0004 27.6004V30.8004H29.2004V42.0004H34.0004V64.4004H8.40039C5.73082 64.4004 3.60039 62.27 3.60039 59.6004V8.40039C3.60039 5.73082 5.73082 3.60039 8.40039 3.60039ZM45.2004 18.0004C48.5269 18.0004 50.6202 18.7339 51.6004 19.1223V22.8004H50.0004C48.1591 22.8004 46.6835 22.9527 45.441 23.7598C44.1985 24.5668 43.6004 26.0988 43.6004 27.6004V34.0004H51.2473L50.2879 38.8004H43.6004V64.4004H37.2004V38.8004H32.4004V34.0004H37.2004V27.6004C37.2004 24.6671 37.9429 22.2347 39.2504 20.6004C40.5578 18.9661 42.4004 18.0004 45.2004 18.0004Z" fill="#E4E4E4"/>
</svg>
