<svg width="41" height="42" viewBox="0 0 41 42" fill="none" xmlns="http://www.w3.org/2000/svg">
<path d="M5.04023 0.839844C2.4007 0.839844 0.240234 3.00031 0.240234 5.63984V36.3598C0.240234 38.9994 2.4007 41.1598 5.04023 41.1598H21.199C21.3027 41.177 21.4084 41.177 21.5121 41.1598H26.959C27.0627 41.177 27.1684 41.177 27.2721 41.1598H35.7602C38.3998 41.1598 40.5602 38.9994 40.5602 36.3598V5.63984C40.5602 3.00031 38.3998 0.839844 35.7602 0.839844H5.04023ZM5.04023 2.75984H35.7602C37.362 2.75984 38.6402 4.0381 38.6402 5.63984V36.3598C38.6402 37.9616 37.362 39.2398 35.7602 39.2398H28.0802V25.7998H31.7477L33.0921 19.0798H28.0802V17.1598C28.0802 16.6247 28.1312 16.5828 28.3109 16.4661C28.4906 16.3494 29.0458 16.1998 30.0002 16.1998H32.8802V10.7942L32.3327 10.5336C32.3327 10.5336 30.1276 9.47984 27.1202 9.47984C24.9602 9.47984 23.1858 10.3404 22.0502 11.7598C20.9147 13.1792 20.4002 15.0798 20.4002 17.1598V19.0798H17.5202V25.7998H20.4002V39.2398H5.04023C3.43849 39.2398 2.16023 37.9616 2.16023 36.3598V5.63984C2.16023 4.0381 3.43849 2.75984 5.04023 2.75984ZM27.1202 11.3998C29.1161 11.3998 30.3721 11.84 30.9602 12.073V14.2798H30.0002C28.8954 14.2798 28.0101 14.3712 27.2646 14.8555C26.5191 15.3397 26.1602 16.2589 26.1602 17.1598V20.9998H30.7484L30.1727 23.8798H26.1602V39.2398H22.3202V23.8798H19.4402V20.9998H22.3202V17.1598C22.3202 15.3998 22.7658 13.9404 23.5502 12.9598C24.3347 11.9792 25.4402 11.3998 27.1202 11.3998Z" fill="#110F04"/>
</svg>
