<svg width="58" height="58" viewBox="0 0 58 58" fill="none" xmlns="http://www.w3.org/2000/svg">
<path d="M28.9966 49.4819C29.7646 49.4819 30.5111 49.4416 31.2361 49.3611C31.9611 49.2805 32.6659 49.1544 33.3507 48.9827L30.2694 44.3465H21.3277V41.7889C21.3277 40.3822 21.8276 39.1779 22.8274 38.1762C23.8272 37.1744 25.029 36.6736 26.4329 36.6736H31.5382V29.0007H26.4632C25.7784 29.0007 25.1743 28.7388 24.6507 28.2152C24.127 27.6916 23.8652 27.0875 23.8652 26.4027V21.2673H22.7283C21.6335 21.2673 20.6934 20.8947 19.9079 20.1496C19.1225 19.4045 18.7298 18.4784 18.7298 17.3713C18.7298 16.9881 18.7902 16.6052 18.9111 16.2225C19.0319 15.8399 19.193 15.4875 19.3944 15.1652L23.3819 9.30482C19.0722 10.5132 15.5177 12.9185 12.7184 16.5209C9.91905 20.1233 8.5194 24.2832 8.5194 29.0007H11.0569V26.4027C11.0569 25.718 11.3086 25.1239 11.8121 24.6204C12.3156 24.117 12.9097 23.8652 13.5944 23.8652H18.7298C19.4145 23.8652 20.0187 24.117 20.5423 24.6204C21.0659 25.1239 21.3277 25.718 21.3277 26.4027V29.0007C21.3277 29.6854 21.0659 30.2795 20.5423 30.7829C20.0187 31.2864 19.4145 31.5382 18.7298 31.5382V34.1204C18.7298 35.5406 18.2282 36.7441 17.2251 37.7309C16.2219 38.7177 15.016 39.2111 13.6073 39.2111H11.2382C13.0507 42.3125 15.5142 44.7996 18.6288 46.6725C21.7434 48.5454 25.1993 49.4819 28.9966 49.4819ZM48.4548 35.284C48.777 34.277 49.0288 33.2511 49.21 32.2063C49.3913 31.1615 49.4819 30.0846 49.4819 28.9758C49.4819 24.1993 48.0326 19.9848 45.1339 16.3324C42.2353 12.6799 38.5693 10.277 34.1361 9.12357V16.1632C35.5458 16.1632 36.7526 16.6645 37.7565 17.6671C38.7604 18.6698 39.2624 19.8751 39.2624 21.283V26.4027C40.074 26.4027 40.8121 26.5135 41.4767 26.735C42.1413 26.9566 42.7555 27.3493 43.3194 27.9132L48.4548 35.284ZM29.0167 53.1673C25.6844 53.1673 22.5528 52.5329 19.6219 51.2642C16.6911 49.9954 14.1281 48.2635 11.9329 46.0684C9.7378 43.8732 8.00586 41.3087 6.73711 38.3748C5.46836 35.441 4.83398 32.3062 4.83398 28.9704C4.83398 25.6347 5.46836 22.4999 6.73711 19.566C8.00586 16.6322 9.7378 14.0777 11.9329 11.9027C14.1281 9.72773 16.6926 8.00586 19.6265 6.73711C22.5603 5.46836 25.6951 4.83398 29.0309 4.83398C32.3666 4.83398 35.5014 5.46836 38.4353 6.73711C41.3691 8.00586 43.9236 9.72773 46.0986 11.9027C48.2736 14.0777 49.9954 16.6354 51.2642 19.5757C52.5329 22.5159 53.1673 25.6522 53.1673 28.9846C53.1673 32.3169 52.5329 35.4485 51.2642 38.3794C49.9954 41.3102 48.2736 43.8695 46.0986 46.0572C43.9236 48.245 41.3659 49.9769 38.4257 51.2531C35.4854 52.5292 32.3491 53.1673 29.0167 53.1673Z" fill="#FFE221"/>
</svg>
