<svg width="200" height="200" viewBox="0 0 200 200" fill="none" xmlns="http://www.w3.org/2000/svg">
<path d="M180.09 100.045C180.092 88.1057 177.421 76.3171 172.273 65.5441C167.125 54.7709 159.631 45.2869 150.341 37.7871C141.051 30.2873 130.2 24.9621 118.583 22.2021C106.967 19.442 94.8803 19.317 83.2093 21.8363C71.5385 24.3557 60.5795 29.4555 51.1363 36.7615C41.6929 44.0677 34.0047 53.3949 28.6355 64.0593C23.2663 74.7235 20.3521 86.4545 20.1067 98.3915C19.8615 110.329 22.2913 122.17 27.2179 133.045H172.962C177.668 122.681 180.098 111.428 180.09 100.045Z" fill="#FFE221"/>
<path d="M22.0898 133.047H178.09" stroke="#110F04" stroke-width="4" stroke-linecap="round" stroke-linejoin="round"/>
<path d="M13.0898 133.047H18.0898" stroke="#110F04" stroke-width="4" stroke-linecap="round" stroke-linejoin="round"/>
<path d="M182.09 133.047H187.09" stroke="#110F04" stroke-width="4" stroke-linecap="round" stroke-linejoin="round"/>
<path d="M73.0898 81.0469C73.0898 79.9861 72.6684 78.9687 71.9182 78.2185C71.168 77.4683 70.1506 77.0469 69.0898 77.0469H39.0898C38.029 77.0469 37.0116 77.4683 36.2614 78.2185C35.5112 78.9687 35.0898 79.9861 35.0898 81.0469V103.047H73.0898V81.0469Z" fill="#2B2B2B" stroke="#110F04" stroke-width="4" stroke-linecap="round" stroke-linejoin="round"/>
<path d="M73.0898 89.0469H35.0898V81.0469C35.0898 79.9861 35.5112 78.9687 36.2614 78.2185C37.0116 77.4683 38.029 77.0469 39.0898 77.0469H69.0898C70.1506 77.0469 71.168 77.4683 71.9182 78.2185C72.6684 78.9687 73.0898 79.9861 73.0898 81.0469V89.0469Z" fill="#E4E4E4"/>
<path d="M73.0898 99.0469H35.0898V103.047H73.0898V99.0469Z" fill="#E4E4E4" stroke="#110F04" stroke-width="4" stroke-linecap="round" stroke-linejoin="round"/>
<path d="M73.0898 89.0469H35.0898V81.0469C35.0898 79.9861 35.5112 78.9687 36.2614 78.2185C37.0116 77.4683 38.029 77.0469 39.0898 77.0469H69.0898C70.1506 77.0469 71.168 77.4683 71.9182 78.2185C72.6684 78.9687 73.0898 79.9861 73.0898 81.0469V89.0469Z" stroke="#110F04" stroke-width="4" stroke-linecap="round" stroke-linejoin="round"/>
<path d="M40.0899 82.0469C39.8921 82.0469 39.6987 82.1055 39.5343 82.2155C39.3699 82.3253 39.2417 82.4815 39.1661 82.6643C39.0903 82.8469 39.0705 83.0481 39.1091 83.2421C39.1477 83.4359 39.2429 83.6141 39.3827 83.7541C39.5227 83.8939 39.7009 83.9891 39.8949 84.0277C40.0887 84.0663 40.2899 84.0465 40.4725 83.9709C40.6553 83.8951 40.8115 83.7669 40.9213 83.6025C41.0313 83.4381 41.0899 83.2447 41.0899 83.0469C41.0899 82.7817 40.9845 82.5273 40.7971 82.3399C40.6095 82.1523 40.3551 82.0469 40.0899 82.0469Z" fill="#110F04"/>
<path d="M68.0899 82.0469C67.8921 82.0469 67.6987 82.1055 67.5343 82.2155C67.3699 82.3253 67.2417 82.4815 67.1659 82.6643C67.0903 82.8469 67.0705 83.0481 67.1091 83.2421C67.1477 83.4359 67.2429 83.6141 67.3827 83.7541C67.5227 83.8939 67.7007 83.9891 67.8947 84.0277C68.0887 84.0663 68.2899 84.0465 68.4725 83.9709C68.6553 83.8951 68.8115 83.7669 68.9213 83.6025C69.0313 83.4381 69.0899 83.2447 69.0899 83.0469C69.0899 82.7817 68.9845 82.5273 68.7969 82.3399C68.6095 82.1523 68.3551 82.0469 68.0899 82.0469Z" fill="#110F04"/>
<path d="M44.0898 83.0469H64.0898" stroke="#110F04" stroke-width="4" stroke-linecap="round" stroke-linejoin="round"/>
<path d="M48.0898 93.0469H42.0898C41.5594 93.0469 41.0506 92.8363 40.6756 92.4611C40.3006 92.0861 40.0898 91.5773 40.0898 91.0469V89.0469H50.0898V91.0469C50.0898 91.5773 49.879 92.0861 49.504 92.4611C49.129 92.8363 48.6202 93.0469 48.0898 93.0469Z" fill="#E4E4E4" stroke="#110F04" stroke-width="4" stroke-linecap="round" stroke-linejoin="round"/>
<path d="M45.0898 93.0469V95.0469" stroke="#110F04" stroke-width="4" stroke-linecap="round" stroke-linejoin="round"/>
<path d="M66.0898 93.0469H60.0898C59.5594 93.0469 59.0506 92.8363 58.6756 92.4611C58.3004 92.0861 58.0898 91.5773 58.0898 91.0469V89.0469H68.0898V91.0469C68.0898 91.5773 67.879 92.0861 67.504 92.4611C67.129 92.8363 66.6202 93.0469 66.0898 93.0469Z" fill="#E4E4E4" stroke="#110F04" stroke-width="4" stroke-linecap="round" stroke-linejoin="round"/>
<path d="M63.0898 93.0469V95.0469" stroke="#110F04" stroke-width="4" stroke-linecap="round" stroke-linejoin="round"/>
<path d="M38.0898 107.047H33.0898V133.047H38.0898V107.047Z" fill="#E4E4E4"/>
<path d="M38.0898 107.047H33.0898V133.047H38.0898V107.047Z" stroke="#110F04" stroke-width="4" stroke-linecap="round" stroke-linejoin="round"/>
<path d="M93.0898 107.047H38.0898V113.047H93.0898V107.047Z" fill="#E4E4E4"/>
<path d="M93.0898 107.047H38.0898V113.047H93.0898V107.047Z" stroke="#110F04" stroke-width="4" stroke-linecap="round" stroke-linejoin="round"/>
<path d="M103.09 105.047C103.09 105.577 102.879 106.086 102.504 106.461C102.129 106.836 101.62 107.047 101.09 107.047H30.0898C29.5594 107.047 29.0506 106.836 28.6756 106.461C28.3006 106.086 28.0898 105.577 28.0898 105.047C28.0898 104.516 28.3006 104.008 28.6756 103.633C29.0506 103.258 29.5594 103.047 30.0898 103.047H101.09C101.62 103.047 102.129 103.258 102.504 103.633C102.879 104.008 103.09 104.516 103.09 105.047Z" fill="#2B2B2B" stroke="#110F04" stroke-width="4" stroke-linecap="round" stroke-linejoin="round"/>
<path d="M38.0898 128.047H33.0898V133.047H38.0898V128.047Z" fill="#2B2B2B" stroke="#110F04" stroke-width="4" stroke-linecap="round" stroke-linejoin="round"/>
<path d="M98.0898 107.047H93.0898V133.047H98.0898V107.047Z" fill="#E4E4E4"/>
<path d="M98.0898 107.047H93.0898V133.047H98.0898V107.047Z" stroke="#110F04" stroke-width="4" stroke-linecap="round" stroke-linejoin="round"/>
<path d="M98.0898 128.047H93.0898V133.047H98.0898V128.047Z" fill="#2B2B2B" stroke="#110F04" stroke-width="4" stroke-linecap="round" stroke-linejoin="round"/>
<path d="M139.428 171.463C149.61 171.463 157.864 169.76 157.864 167.659C157.864 165.558 149.61 163.855 139.428 163.855C129.246 163.855 120.992 165.558 120.992 167.659C120.992 169.76 129.246 171.463 139.428 171.463Z" fill="#2B2B2B"/>
<path d="M108.766 117.571C108.767 118.784 109.249 119.948 110.107 120.806C110.965 121.664 112.128 122.147 113.342 122.149C123.426 122.149 134.702 112.363 134.702 99.2626V97.7226C134.714 97.1134 134.605 96.508 134.381 95.9414C134.157 95.375 133.822 94.859 133.395 94.4238C132.969 93.9884 132.46 93.6426 131.899 93.4066C131.337 93.1704 130.734 93.0488 130.125 93.0488C129.515 93.0488 128.912 93.1704 128.351 93.4066C127.789 93.6426 127.28 93.9884 126.854 94.4238C126.428 94.859 126.092 95.375 125.868 95.9414C125.644 96.508 125.535 97.1134 125.548 97.7226V99.2626C125.548 107.645 118.318 112.995 113.348 112.995C112.133 112.994 110.968 113.476 110.109 114.334C109.25 115.192 108.767 116.356 108.766 117.571Z" fill="#E4E4E4" stroke="#110F04" stroke-width="4" stroke-linecap="round" stroke-linejoin="round"/>
<path d="M143.922 158.785H152.798L154.064 141.035H143.922V158.785Z" fill="#E4E4E4"/>
<path d="M143.922 158.785H152.798L154.064 141.035H143.922V158.785Z" stroke="#110F04" stroke-width="4" stroke-linecap="round" stroke-linejoin="round"/>
<path d="M143.921 158.785H135.045L133.777 141.035H143.921V158.785Z" fill="#E4E4E4"/>
<path d="M143.921 158.785H135.045L133.777 141.035H143.921V158.785Z" stroke="#110F04" stroke-width="4" stroke-linecap="round" stroke-linejoin="round"/>
<path d="M143.921 158.785H136.229C134.88 158.755 133.543 159.039 132.323 159.616C131.103 160.192 130.034 161.046 129.201 162.107C128.887 162.493 128.688 162.96 128.628 163.455C128.569 163.949 128.651 164.45 128.865 164.899C129.078 165.349 129.415 165.728 129.837 165.994C130.258 166.259 130.745 166.4 131.243 166.399H143.921V158.785Z" fill="#E4E4E4" stroke="#110F04" stroke-width="4" stroke-linejoin="round"/>
<path d="M152.798 158.786H145.1C143.751 158.754 142.412 159.038 141.191 159.614C139.971 160.191 138.901 161.045 138.068 162.108C137.754 162.494 137.555 162.961 137.495 163.456C137.436 163.95 137.518 164.452 137.733 164.901C137.947 165.351 138.285 165.73 138.706 165.996C139.128 166.261 139.616 166.401 140.114 166.4H150.258C150.592 166.4 150.923 166.335 151.232 166.207C151.541 166.079 151.821 165.892 152.057 165.655C152.293 165.419 152.48 165.138 152.607 164.829C152.734 164.521 152.799 164.19 152.798 163.856V158.786Z" fill="#E4E4E4" stroke="#110F04" stroke-width="4" stroke-linejoin="round"/>
<path d="M157.865 114.41L156.719 138.504C156.685 139.186 156.391 139.83 155.897 140.301C155.402 140.772 154.746 141.035 154.063 141.036H133.775C133.091 141.035 132.434 140.772 131.94 140.3C131.446 139.828 131.151 139.185 131.119 138.502L129.973 114.41H157.865Z" fill="#2B2B2B"/>
<path d="M157.865 114.41L156.719 138.504C156.685 139.186 156.391 139.83 155.897 140.301C155.402 140.772 154.746 141.035 154.063 141.036H133.775C133.091 141.035 132.434 140.772 131.94 140.3C131.446 139.828 131.151 139.185 131.119 138.502L129.973 114.41H157.865Z" stroke="#110F04" stroke-width="4" stroke-linecap="round" stroke-linejoin="round"/>
<path d="M123.633 91.6335C123.721 85.9287 126.052 80.4879 130.123 76.4901C134.194 72.4921 139.675 70.2587 145.381 70.2735C151.046 70.2735 156.479 72.5239 160.485 76.5297C164.49 80.5355 166.741 85.9685 166.741 91.6335V101.732H157.865V114.41H129.973V101.732H126.557C125.79 101.617 125.084 101.246 124.553 100.68C124.023 100.115 123.698 99.3863 123.633 98.6135V91.6335Z" fill="#2B2B2B"/>
<path d="M123.633 91.6335C123.721 85.9287 126.052 80.4879 130.123 76.4901C134.194 72.4921 139.675 70.2587 145.381 70.2735C151.046 70.2735 156.479 72.5239 160.485 76.5297C164.49 80.5355 166.741 85.9685 166.741 91.6335V101.732H157.865V114.41H129.973V101.732H126.557C125.79 101.617 125.084 101.246 124.553 100.68C124.023 100.115 123.698 99.3863 123.633 98.6135V91.6335Z" stroke="#110F04" stroke-width="4" stroke-linecap="round" stroke-linejoin="round"/>
<path d="M150.16 70.8414L150.17 62.6094H140.22V69.4094C140.22 69.835 140.084 70.2496 139.832 70.5926C139.58 70.9358 139.226 71.1898 138.82 71.3174C138.292 71.4814 137.774 71.6634 137.266 71.8734L143.922 90.3194L150.802 70.9654C150.588 70.9114 150.37 70.8894 150.16 70.8414Z" fill="#E4E4E4" stroke="#110F04" stroke-width="4" stroke-linecap="round" stroke-linejoin="round"/>
<path d="M157.867 106.89V91.5879" stroke="#110F04" stroke-width="4" stroke-linecap="round" stroke-linejoin="round"/>
<path d="M143.922 90.3203V114.518" stroke="#110F04" stroke-width="4" stroke-linecap="round" stroke-linejoin="round"/>
<path d="M133.068 80.4815C132.906 80.8655 132.843 81.2835 132.883 81.6979C132.922 82.1125 133.064 82.5109 133.295 82.8573C133.526 83.2037 133.84 83.4875 134.207 83.6833C134.575 83.8791 134.985 83.9809 135.402 83.9795H141.63L137.246 71.8555C136.966 71.9695 136.69 72.0855 136.418 72.2095L133.068 80.4815Z" fill="#E4E4E4" stroke="#110F04" stroke-width="4" stroke-linecap="round" stroke-linejoin="round"/>
<path d="M154.774 80.4828L150.938 71.0008L150.794 70.9648L146.172 83.9809H152.442C152.858 83.9819 153.268 83.8798 153.635 83.684C154.003 83.488 154.316 83.2042 154.547 82.8578C154.778 82.5114 154.919 82.1132 154.959 81.6988C154.998 81.2844 154.935 80.8666 154.774 80.4828Z" fill="#E4E4E4" stroke="#110F04" stroke-width="4" stroke-linecap="round" stroke-linejoin="round"/>
<path d="M129.976 101.732C130.121 99.9479 129.675 98.1659 128.708 96.6599C127.814 95.1231 127.375 93.3645 127.44 91.5879" stroke="#110F04" stroke-width="4" stroke-linecap="round" stroke-linejoin="round"/>
<path d="M155.866 118.214H144.652C144.122 118.214 143.613 118.004 143.238 117.629C142.863 117.254 142.652 116.745 142.652 116.214V97.4004C142.652 96.87 142.863 96.3612 143.238 95.9862C143.613 95.611 144.122 95.4004 144.652 95.4004H157.866V116.214C157.866 116.745 157.656 117.254 157.281 117.629C156.906 118.004 156.397 118.214 155.866 118.214Z" fill="#E4E4E4" stroke="#110F04" stroke-width="4" stroke-linecap="round" stroke-linejoin="round"/>
<path d="M157.864 101.732C157.864 102.74 157.464 103.707 156.751 104.419C156.039 105.132 155.072 105.532 154.064 105.532H144.598C143.421 105.532 142.292 106 141.46 106.832C140.628 107.665 140.16 108.793 140.16 109.97C140.16 111.147 140.628 112.276 141.46 113.109C142.292 113.941 143.421 114.408 144.598 114.408H154.068C155.733 114.409 157.382 114.081 158.92 113.444C160.459 112.807 161.857 111.873 163.034 110.696C164.212 109.518 165.146 108.121 165.783 106.582C166.42 105.044 166.748 103.395 166.748 101.73L157.864 101.732Z" fill="#E4E4E4" stroke="#110F04" stroke-width="4" stroke-linecap="round" stroke-linejoin="round"/>
<path d="M145.231 31.6699C147.234 31.6699 149.218 32.0645 151.069 32.8313C152.921 33.5981 154.602 34.7221 156.019 36.1389C157.436 37.5559 158.559 39.2379 159.326 41.0891C160.092 42.9403 160.487 44.9243 160.487 46.9279V49.9779C164.843 49.9779 164.545 57.6079 159.725 57.6079H159.713C158.627 61.0835 156.331 64.0545 153.242 65.9817C150.152 67.9087 146.475 68.6641 142.876 68.1107C139.277 67.5571 135.996 65.7315 133.628 62.9651C131.261 60.1987 129.964 56.6751 129.973 53.0339V46.9279C129.973 44.9241 130.367 42.9399 131.134 41.0885C131.9 39.2373 133.024 37.5551 134.441 36.1383C135.858 34.7213 137.54 33.5975 139.391 32.8307C141.243 32.0641 143.227 31.6697 145.231 31.6699Z" fill="#E4E4E4" stroke="#110F04" stroke-width="4" stroke-linecap="round" stroke-linejoin="round"/>
<path d="M146 50.9822C146 51.3596 146.112 51.7284 146.322 52.0422C146.531 52.356 146.829 52.6006 147.178 52.745C147.526 52.8894 147.91 52.9272 148.28 52.8536C148.65 52.7798 148.99 52.5982 149.257 52.3314C149.524 52.0644 149.706 51.7246 149.779 51.3544C149.853 50.9842 149.815 50.6006 149.671 50.252C149.526 49.9034 149.282 49.6054 148.968 49.3958C148.654 49.186 148.285 49.0742 147.908 49.0742C147.402 49.0742 146.917 49.2752 146.559 49.633C146.201 49.9908 146 50.4762 146 50.9822Z" fill="#110F04"/>
<path d="M134.551 50.9822C134.551 51.3596 134.663 51.7286 134.873 52.0424C135.082 52.3562 135.38 52.6008 135.729 52.7452C136.078 52.8894 136.462 52.9272 136.832 52.8534C137.202 52.7796 137.542 52.5976 137.809 52.3306C138.075 52.0636 138.257 51.7234 138.33 51.3532C138.404 50.983 138.366 50.5992 138.221 50.2506C138.076 49.902 137.831 49.6042 137.517 49.3948C137.203 49.1854 136.834 49.0738 136.457 49.0742C135.951 49.0748 135.466 49.276 135.109 49.6338C134.752 49.9914 134.551 50.4764 134.551 50.9822Z" fill="#110F04"/>
<path d="M149.801 57.0846C149.801 57.3864 149.89 57.6814 150.058 57.9324C150.226 58.1834 150.464 58.379 150.743 58.4944C151.022 58.61 151.328 58.6402 151.624 58.5812C151.921 58.5224 152.192 58.377 152.406 58.1636C152.619 57.9502 152.765 57.6784 152.823 57.3822C152.882 57.0862 152.852 56.7794 152.737 56.5006C152.621 56.2218 152.426 55.9834 152.175 55.8158C151.924 55.648 151.629 55.5586 151.327 55.5586C151.126 55.5586 150.928 55.598 150.743 55.6748C150.558 55.7514 150.389 55.8638 150.248 56.0056C150.106 56.1472 149.994 56.3154 149.917 56.5006C149.84 56.6858 149.801 56.8842 149.801 57.0846Z" fill="#2B2B2B"/>
<path d="M145.999 59.6094C144.947 60.54 143.59 61.0536 142.185 61.0536C140.78 61.0536 139.423 60.54 138.371 59.6094" stroke="#110F04" stroke-width="4" stroke-linecap="round" stroke-linejoin="round"/>
<path d="M156.598 51.5682C156.457 49.8898 155.686 48.3272 154.439 47.195C153.192 46.0628 151.562 45.445 149.878 45.4662H129.998C128.398 45.4662 127.152 44.5522 127.5 42.9942C128.457 38.3456 131.103 34.2164 134.926 31.4048C138.75 28.5932 143.48 27.2986 148.203 27.7712C152.925 28.2436 157.305 30.4498 160.495 33.9632C163.686 37.4768 165.461 42.0482 165.478 46.7942V69.1542C165.434 69.5588 165.304 69.9496 165.097 70.3C164.889 70.6504 164.61 70.9524 164.276 71.1862C163.943 71.4198 163.563 71.5794 163.163 71.6546C162.763 71.73 162.352 71.7188 161.956 71.6222C158.14 70.7122 157.068 68.0222 156.602 64.3322L156.598 51.5682Z" fill="#2B2B2B"/>
<path d="M156.598 51.5682C156.457 49.8898 155.686 48.3272 154.439 47.195C153.192 46.0628 151.562 45.445 149.878 45.4662H129.998C128.398 45.4662 127.152 44.5522 127.5 42.9942C128.457 38.3456 131.103 34.2164 134.926 31.4048C138.75 28.5932 143.48 27.2986 148.203 27.7712C152.925 28.2436 157.305 30.4498 160.495 33.9632C163.686 37.4768 165.461 42.0482 165.478 46.7942V69.1542C165.434 69.5588 165.304 69.9496 165.097 70.3C164.889 70.6504 164.61 70.9524 164.276 71.1862C163.943 71.4198 163.563 71.5794 163.163 71.6546C162.763 71.73 162.352 71.7188 161.956 71.6222C158.14 70.7122 157.068 68.0222 156.602 64.3322L156.598 51.5682Z" stroke="#110F04" stroke-width="4" stroke-linecap="round" stroke-linejoin="round"/>
<path d="M146.457 45.4659V39.9199" stroke="#110F04" stroke-width="4" stroke-linecap="round" stroke-linejoin="round"/>
<path d="M152.797 46.1359V39.9199" stroke="#110F04" stroke-width="4" stroke-linecap="round" stroke-linejoin="round"/>
<path d="M140.117 45.4659V39.9199" stroke="#110F04" stroke-width="4" stroke-linecap="round" stroke-linejoin="round"/>
<path d="M133.777 45.4659V39.9199" stroke="#110F04" stroke-width="4" stroke-linecap="round" stroke-linejoin="round"/>
<path d="M95.7383 126.455C95.7383 127.632 96.2059 128.761 97.0381 129.593C97.8705 130.425 98.9993 130.893 100.176 130.893C101.353 130.893 102.482 130.425 103.314 129.593C104.147 128.761 104.614 127.632 104.614 126.455V100.465H95.7383V126.455Z" fill="#E4E4E4" stroke="#110F04" stroke-width="4" stroke-linecap="round" stroke-linejoin="round"/>
<path d="M96.7425 158.786C97.2577 158.786 97.7717 158.837 98.2765 158.94V119.482H65.3125V158.786H75.4545C75.9601 158.787 76.4645 158.838 76.9605 158.936L77.7265 134.834C77.7669 133.782 78.2133 132.787 78.9719 132.057C79.7305 131.327 80.7425 130.919 81.7955 130.919C82.8483 130.919 83.8603 131.327 84.6189 132.057C85.3777 132.787 85.8241 133.782 85.8645 134.834L86.6245 158.786H96.7425Z" fill="#2B2B2B"/>
<path d="M96.7425 158.786C97.2577 158.786 97.7717 158.837 98.2765 158.94V119.482H65.3125V158.786H75.4545C75.9601 158.787 76.4645 158.838 76.9605 158.936L77.7265 134.834C77.7669 133.782 78.2133 132.787 78.9719 132.057C79.7305 131.327 80.7425 130.919 81.7955 130.919C82.8483 130.919 83.8603 131.327 84.6189 132.057C85.3777 132.787 85.8241 133.782 85.8645 134.834L86.6245 158.786H96.7425Z" stroke="#110F04" stroke-width="4" stroke-linecap="round" stroke-linejoin="round"/>
<path d="M56.4375 96.6603C56.4375 90.2713 58.9755 84.1439 63.4933 79.6261C68.0111 75.1083 74.1385 72.5703 80.5275 72.5703C86.9165 72.5703 93.0439 75.1083 97.5617 79.6261C102.08 84.1439 104.618 90.2713 104.618 96.6603V100.46H98.2775V119.478H65.3135V100.464H56.4375V96.6603Z" fill="#E4E4E4"/>
<path d="M56.4375 96.6603C56.4375 90.2713 58.9755 84.1439 63.4933 79.6261C68.0111 75.1083 74.1385 72.5703 80.5275 72.5703C86.9165 72.5703 93.0439 75.1083 97.5617 79.6261C102.08 84.1439 104.618 90.2713 104.618 96.6603V100.46H98.2775V119.478H65.3135V100.464H56.4375V96.6603Z" stroke="#110F04" stroke-width="4" stroke-linecap="round" stroke-linejoin="round"/>
<path d="M84.3292 173.999C98.2986 173.999 109.623 171.729 109.623 168.927C109.623 166.126 98.2986 163.855 84.3292 163.855C70.3596 163.855 59.0352 166.126 59.0352 168.927C59.0352 171.729 70.3596 173.999 84.3292 173.999Z" fill="#2B2B2B"/>
<path d="M56.4375 126.455C56.4375 127.038 56.5523 127.615 56.7753 128.153C56.9983 128.692 57.3253 129.181 57.7373 129.593C58.1495 130.005 58.6387 130.332 59.1771 130.555C59.7155 130.778 60.2927 130.893 60.8755 130.893C61.4583 130.893 62.0353 130.778 62.5739 130.555C63.1123 130.332 63.6015 130.005 64.0137 129.593C64.4257 129.181 64.7527 128.692 64.9757 128.153C65.1987 127.615 65.3135 127.038 65.3135 126.455V100.465H56.4375V126.455Z" fill="#E4E4E4" stroke="#110F04" stroke-width="4" stroke-linecap="round" stroke-linejoin="round"/>
<path d="M65.3125 100.463V92.8555" stroke="#110F04" stroke-width="4" stroke-linecap="round" stroke-linejoin="round"/>
<path d="M98.2773 100.463V92.8555" stroke="#110F04" stroke-width="4" stroke-linecap="round" stroke-linejoin="round"/>
<path d="M104.352 166.401C104.352 164.385 103.551 162.452 102.126 161.027C100.7 159.602 98.7672 158.801 96.7516 158.801H86.6016V163.871C86.6026 164.543 86.8704 165.186 87.3458 165.661C87.8214 166.135 88.4658 166.401 89.1376 166.401H104.352Z" fill="#E4E4E4" stroke="#110F04" stroke-width="4" stroke-linecap="round" stroke-linejoin="round"/>
<path d="M83.0625 166.401C83.0625 164.385 82.2617 162.452 80.8365 161.027C79.4111 159.602 77.4781 158.801 75.4625 158.801H65.3125V163.871C65.3135 164.543 65.5813 165.186 66.0567 165.661C66.5323 166.135 67.1767 166.401 67.8485 166.401H83.0625Z" fill="#E4E4E4" stroke="#110F04" stroke-width="4" stroke-linecap="round" stroke-linejoin="round"/>
<path d="M88.0697 73.8C87.6637 73.6724 87.3089 73.4184 87.0571 73.0752C86.8055 72.7322 86.6697 72.3176 86.6697 71.892V65.75H76.7357V71.232C76.7355 71.6844 76.5817 72.1232 76.2999 72.477C76.0181 72.8308 75.6245 73.0786 75.1837 73.18C74.4219 73.3538 73.6695 73.5668 72.9297 73.818L81.8017 81.446L90.6717 74.8C89.8267 74.4112 88.9575 74.0772 88.0697 73.8Z" fill="#E4E4E4" stroke="#110F04" stroke-width="4" stroke-linecap="round" stroke-linejoin="round"/>
<path d="M81.8 81.4468L72.918 73.8008L72.96 81.3208C72.955 81.7428 73.0556 82.1594 73.2524 82.5326C73.4494 82.906 73.7362 83.2242 74.0874 83.4584C74.4384 83.6926 74.8424 83.8356 75.2626 83.874C75.683 83.9126 76.1062 83.8454 76.494 83.6788L81.8 81.4468Z" fill="#E4E4E4" stroke="#110F04" stroke-width="4" stroke-linecap="round" stroke-linejoin="round"/>
<path d="M81.8008 81.4468L90.6708 74.8008V81.3568C90.6754 81.779 90.5746 82.1954 90.3774 82.5688C90.1802 82.942 89.8932 83.2602 89.542 83.4942C89.1908 83.7284 88.7866 83.8714 88.3664 83.9098C87.946 83.9484 87.5226 83.8814 87.1348 83.7148L81.8008 81.4468Z" fill="#E4E4E4" stroke="#110F04" stroke-width="4" stroke-linecap="round" stroke-linejoin="round"/>
<path d="M81.793 81.4453V119.481" stroke="#110F04" stroke-width="4" stroke-linecap="round" stroke-linejoin="round"/>
<path d="M81.8003 35.0703C77.7653 35.0703 73.8955 36.6733 71.0423 39.5263C68.1891 42.3795 66.5863 46.2493 66.5863 50.2843V52.3143C65.8473 52.4533 65.1839 52.8557 64.7191 53.4467C64.2543 54.0377 64.0197 54.7773 64.0589 55.5281C64.0979 56.2791 64.4081 56.9903 64.9317 57.5299C65.4553 58.0695 66.1569 58.4007 66.9063 58.4623C67.6883 62.1335 69.7999 65.3861 72.8351 67.5945C75.8701 69.8029 79.6145 70.8115 83.3483 70.4261C87.0821 70.0407 90.5415 68.2887 93.0617 65.5069C95.5817 62.7251 96.9845 59.1099 97.0003 55.3563V50.2843C97.0003 46.2517 95.3993 42.3841 92.5491 39.5313C89.6989 36.6785 85.8329 35.0741 81.8003 35.0703Z" fill="#E4E4E4" stroke="#110F04" stroke-width="4" stroke-linecap="round" stroke-linejoin="round"/>
<path d="M81.8001 52.1852C81.8001 52.5614 81.6885 52.9292 81.4795 53.2418C81.2705 53.5546 80.9735 53.7984 80.6259 53.9424C80.2783 54.0864 79.8959 54.124 79.5271 54.0506C79.1581 53.9772 78.8191 53.7962 78.5531 53.5302C78.2871 53.2642 78.1061 52.9252 78.0327 52.5562C77.9593 52.1874 77.9969 51.8048 78.1409 51.4574C78.2849 51.1098 78.5285 50.8128 78.8413 50.6038C79.1541 50.3948 79.5219 50.2832 79.8981 50.2832C80.4025 50.2832 80.8863 50.4836 81.2429 50.8402C81.5997 51.197 81.8001 51.6808 81.8001 52.1852Z" fill="#110F04"/>
<path d="M88.1328 52.1852C88.1328 52.5614 88.2444 52.9292 88.4534 53.2418C88.6624 53.5546 88.9594 53.7984 89.307 53.9424C89.6544 54.0864 90.0368 54.124 90.4058 54.0506C90.7748 53.9772 91.1136 53.7962 91.3796 53.5302C91.6456 53.2642 91.8268 52.9252 91.9002 52.5562C91.9736 52.1874 91.936 51.8048 91.792 51.4574C91.648 51.1098 91.4042 50.8128 91.0914 50.6038C90.7786 50.3948 90.411 50.2832 90.0348 50.2832C89.5304 50.2832 89.0466 50.4836 88.6898 50.8402C88.3332 51.197 88.1328 51.6808 88.1328 52.1852Z" fill="#110F04"/>
<path d="M76.7219 57.2575C76.7219 57.6337 76.6103 58.0015 76.4013 58.3143C76.1923 58.6269 75.8953 58.8707 75.5477 59.0147C75.2001 59.1587 74.8177 59.1963 74.4489 59.1229C74.0799 59.0495 73.7409 58.8685 73.4749 58.6025C73.2089 58.3365 73.0279 57.9975 72.9545 57.6285C72.8811 57.2597 72.9187 56.8773 73.0627 56.5297C73.2067 56.1821 73.4503 55.8851 73.7631 55.6761C74.0759 55.4671 74.4437 55.3555 74.8199 55.3555C75.3243 55.3555 75.8081 55.5559 76.1647 55.9127C76.5215 56.2693 76.7219 56.7531 76.7219 57.2575Z" fill="#2B2B2B"/>
<path d="M80.5273 61.8125C81.6533 62.5611 82.9751 62.9603 84.3273 62.9603C85.6793 62.9603 87.0013 62.5611 88.1273 61.8125" stroke="#110F04" stroke-width="4" stroke-linecap="round" stroke-linejoin="round"/>
<path d="M64.043 42.6755C64.0434 39.9859 65.1122 37.4065 67.014 35.5047C68.916 33.6027 71.4952 32.5341 74.185 32.5335H85.599C86.083 32.5333 86.557 32.3945 86.965 32.1337C87.3728 31.8729 87.6976 31.5009 87.901 31.0615C88.034 30.7675 88.2428 30.5141 88.506 30.3275C88.7692 30.1409 89.0774 30.0277 89.399 29.9995H91.553C93.4948 29.9627 95.3814 30.6455 96.85 31.9163C98.3184 33.1873 99.2648 34.9565 99.507 36.8835C99.6986 38.8733 99.0988 40.8583 97.8372 42.4089C96.5756 43.9595 94.754 44.9505 92.767 45.1675C92.408 46.5135 91.6534 47.7207 90.6008 48.6331C89.5484 49.5457 88.2462 50.1213 86.863 50.2855H84.329C84.2286 50.2853 84.131 50.2521 84.0512 50.1911C83.9714 50.1301 83.9138 50.0449 83.887 49.9481C83.8602 49.8513 83.8658 49.7483 83.903 49.6551C83.9402 49.5619 84.007 49.4833 84.093 49.4315C85.2446 48.7439 86.083 47.6349 86.431 46.3395C86.4706 46.2091 86.4792 46.0713 86.456 45.9371C86.4328 45.8029 86.3786 45.6759 86.2974 45.5665C86.2164 45.4571 86.1108 45.3681 85.9892 45.3067C85.8674 45.2455 85.7332 45.2135 85.597 45.2135H75.237C74.9026 45.2127 74.5716 45.2781 74.2626 45.4059C73.9538 45.5335 73.6732 45.7209 73.437 45.9575L66.579 52.8195H65.311C64.9746 52.8195 64.6522 52.6859 64.4144 52.4481C64.1766 52.2103 64.043 51.8879 64.043 51.5515V42.6755Z" fill="#2B2B2B"/>
<path d="M64.043 42.6755C64.0434 39.9859 65.1122 37.4065 67.014 35.5047C68.916 33.6027 71.4952 32.5341 74.185 32.5335H85.599C86.083 32.5333 86.557 32.3945 86.965 32.1337C87.3728 31.8729 87.6976 31.5009 87.901 31.0615C88.034 30.7675 88.2428 30.5141 88.506 30.3275C88.7692 30.1409 89.0774 30.0277 89.399 29.9995H91.553C93.4948 29.9627 95.3814 30.6455 96.85 31.9163C98.3184 33.1873 99.2648 34.9565 99.507 36.8835C99.6986 38.8733 99.0988 40.8583 97.8372 42.4089C96.5756 43.9595 94.754 44.9505 92.767 45.1675C92.408 46.5135 91.6534 47.7207 90.6008 48.6331C89.5484 49.5457 88.2462 50.1213 86.863 50.2855H84.329C84.2286 50.2853 84.131 50.2521 84.0512 50.1911C83.9714 50.1301 83.9138 50.0449 83.887 49.9481C83.8602 49.8513 83.8658 49.7483 83.903 49.6551C83.9402 49.5619 84.007 49.4833 84.093 49.4315C85.2446 48.7439 86.083 47.6349 86.431 46.3395C86.4706 46.2091 86.4792 46.0713 86.456 45.9371C86.4328 45.8029 86.3786 45.6759 86.2974 45.5665C86.2164 45.4571 86.1108 45.3681 85.9892 45.3067C85.8674 45.2455 85.7332 45.2135 85.597 45.2135H75.237C74.9026 45.2127 74.5716 45.2781 74.2626 45.4059C73.9538 45.5335 73.6732 45.7209 73.437 45.9575L66.579 52.8195H65.311C64.9746 52.8195 64.6522 52.6859 64.4144 52.4481C64.1766 52.2103 64.043 51.8879 64.043 51.5515V42.6755Z" stroke="#110F04" stroke-width="4" stroke-linecap="round" stroke-linejoin="round"/>
<path d="M66.5118 77.0469H58.0898L59.2918 66.0469H65.3098L66.5118 77.0469Z" fill="#E4E4E4" stroke="#110F04" stroke-width="4" stroke-linejoin="round"/>
<path d="M66.5118 73.0469H58.0898L59.1938 62.9369C59.221 62.6911 59.3382 62.4643 59.5228 62.2999C59.7076 62.1355 59.9466 62.0453 60.1938 62.0469H64.4158C64.663 62.0453 64.902 62.1355 65.0866 62.2999C65.2714 62.4643 65.3886 62.6911 65.4158 62.9369L66.5118 73.0469Z" fill="#E4E4E4" stroke="#110F04" stroke-width="4" stroke-linejoin="round"/>
<path d="M52.5981 77.0469H44.1641L45.2701 66.9369C45.2973 66.6911 45.4145 66.4643 45.5993 66.2999C45.7839 66.1355 46.0229 66.0453 46.2701 66.0469H50.4941C50.7413 66.0453 50.9803 66.1355 51.1651 66.2999C51.3497 66.4643 51.4669 66.6911 51.4941 66.9369L52.5981 77.0469Z" fill="#2B2B2B" stroke="#110F04" stroke-width="4" stroke-linejoin="round"/>
<path d="M44.4937 74.0469H43.0938C42.4308 74.0469 41.7947 73.7835 41.3259 73.3147C40.8571 72.8457 40.5938 72.2099 40.5938 71.5469C40.5938 70.8839 40.8571 70.2479 41.3259 69.7791C41.7947 69.3103 42.4308 69.0469 43.0938 69.0469H45.0617" stroke="#110F04" stroke-width="4" stroke-linejoin="round"/>
</svg>
