<svg width="200" height="200" viewBox="0 0 200 200" fill="none" xmlns="http://www.w3.org/2000/svg">
<path d="M176.758 105.62C176.759 93.6798 174.088 81.8912 168.941 71.1182C163.793 60.3452 156.299 50.861 147.009 43.3612C137.719 35.8614 126.868 30.5362 115.251 27.7762C103.635 25.0162 91.5482 24.8912 79.8774 27.4106C68.2064 29.93 57.2476 35.0296 47.8042 42.3358C38.3608 49.642 30.6726 58.9692 25.3034 69.6334C19.9341 80.2978 17.02 92.0286 16.7747 103.966C16.5294 115.903 18.9592 127.744 23.8858 138.62H169.63C174.337 128.255 176.767 117.002 176.758 105.62Z" fill="#FFE221"/>
<path d="M18.7578 138.621H174.758" stroke="#110F04" stroke-width="4" stroke-linecap="round" stroke-linejoin="round"/>
<path d="M9.75781 138.621H14.7578" stroke="#110F04" stroke-width="4" stroke-linecap="round" stroke-linejoin="round"/>
<path d="M178.758 138.621H183.758" stroke="#110F04" stroke-width="4" stroke-linecap="round" stroke-linejoin="round"/>
<path d="M129.356 131.503C129.709 131.503 130.057 131.434 130.383 131.299C130.708 131.164 131.003 130.967 131.252 130.717C131.501 130.468 131.698 130.173 131.833 129.847C131.968 129.522 132.037 129.173 132.036 128.821V107.313C132.036 99.6149 128.978 92.2319 123.535 86.7885C118.092 81.3451 110.709 78.2871 103.01 78.2871C95.3124 78.2871 87.9294 81.3451 82.486 86.7885C77.0426 92.2319 73.9844 99.6149 73.9844 107.313V128.821C73.9842 129.173 74.0534 129.522 74.188 129.847C74.3224 130.173 74.5198 130.468 74.7688 130.717C75.0176 130.967 75.3132 131.164 75.6384 131.299C75.9638 131.434 76.3124 131.503 76.6644 131.503H85.2644V143.601H93.9624C95.751 143.601 97.5118 143.16 99.0888 142.317C100.666 141.473 102.01 140.253 103.002 138.765C103.995 140.254 105.341 141.475 106.919 142.318C108.497 143.162 110.259 143.603 112.048 143.601H120.748V131.503H129.356Z" fill="#E4E4E4"/>
<path d="M129.356 131.503C129.709 131.503 130.057 131.434 130.383 131.299C130.708 131.164 131.003 130.967 131.252 130.717C131.501 130.468 131.698 130.173 131.833 129.847C131.968 129.522 132.037 129.173 132.036 128.821V107.313C132.036 99.6149 128.978 92.2319 123.535 86.7885C118.092 81.3451 110.709 78.2871 103.01 78.2871C95.3124 78.2871 87.9294 81.3451 82.486 86.7885C77.0426 92.2319 73.9844 99.6149 73.9844 107.313V128.821C73.9842 129.173 74.0534 129.522 74.188 129.847C74.3224 130.173 74.5198 130.468 74.7688 130.717C75.0176 130.967 75.3132 131.164 75.6384 131.299C75.9638 131.434 76.3124 131.503 76.6644 131.503H85.2644V143.601H93.9624C95.751 143.601 97.5118 143.16 99.0888 142.317C100.666 141.473 102.01 140.253 103.002 138.765C103.995 140.254 105.341 141.475 106.919 142.318C108.497 143.162 110.259 143.603 112.048 143.601H120.748V131.503H129.356Z" stroke="#110F04" stroke-width="4" stroke-linecap="round" stroke-linejoin="round"/>
<path d="M120.746 131.502V104.088" stroke="#110F04" stroke-width="4" stroke-linecap="round" stroke-linejoin="round"/>
<path d="M85.2734 131.502V104.088" stroke="#110F04" stroke-width="4" stroke-linecap="round" stroke-linejoin="round"/>
<path d="M103.011 120.213L114.459 80.6351C110.841 79.0859 106.946 78.2871 103.011 78.2871C99.0749 78.2871 95.1803 79.0859 91.5625 80.6351L103.011 120.213Z" fill="#2B2B2B" stroke="#110F04" stroke-width="4" stroke-linecap="round" stroke-linejoin="round"/>
<path d="M103.008 120.213L91.5604 80.6348C88.1722 82.0918 85.092 84.1804 82.4844 86.7888L90.1084 94.4128V102.475L103.008 120.213Z" fill="#E4E4E4" stroke="#110F04" stroke-width="4" stroke-linecap="round" stroke-linejoin="round"/>
<path d="M103.012 120.213L114.458 80.6348C117.847 82.0914 120.928 84.1798 123.536 86.7888L115.912 94.4128V102.475L103.012 120.213Z" fill="#E4E4E4" stroke="#110F04" stroke-width="4" stroke-linecap="round" stroke-linejoin="round"/>
<path d="M103.012 138.759V120.213" stroke="#110F04" stroke-width="4" stroke-linecap="round" stroke-linejoin="round"/>
<path d="M96.793 79.0852L102.959 84.8752L109.299 78.9772L109.305 68.2012H96.799L96.793 79.0852Z" fill="#E4E4E4" stroke="#110F04" stroke-width="4" stroke-linecap="round" stroke-linejoin="round"/>
<path d="M111.575 90.6076L103.011 84.8496L94.4492 90.6076" stroke="#110F04" stroke-width="4" stroke-linecap="round" stroke-linejoin="round"/>
<path d="M103.009 84.8496L97.625 101.6L103.009 120.212L108.393 101.602L103.009 84.8496Z" fill="#E4E4E4" stroke="#110F04" stroke-width="4" stroke-linecap="round" stroke-linejoin="round"/>
<path d="M122.327 52.2009C122.327 57.3195 120.293 62.2285 116.674 65.8481C113.054 69.4675 108.145 71.5009 103.027 71.5009C97.908 71.5009 92.999 69.4675 89.3794 65.8481C85.76 62.2285 83.7266 57.3195 83.7266 52.2009C83.7266 40.3229 90.4766 31.2949 96.5906 31.2949C101.505 39.0629 122.327 29.7349 122.327 52.2009Z" fill="#E4E4E4"/>
<path d="M122.327 52.2009C122.327 57.3195 120.293 62.2285 116.674 65.8481C113.054 69.4675 108.145 71.5009 103.027 71.5009C97.908 71.5009 92.999 69.4675 89.3794 65.8481C85.76 62.2285 83.7266 57.3195 83.7266 52.2009C83.7266 40.3229 90.4766 31.2949 96.5906 31.2949C101.505 39.0629 122.327 29.7349 122.327 52.2009Z" stroke="#110F04" stroke-width="4" stroke-linecap="round" stroke-linejoin="round"/>
<path d="M119.128 57.0154L115.888 58.6154L113.55 50.4354C113.328 49.653 112.817 48.9844 112.12 48.5654C111.423 48.1464 110.593 48.0084 109.798 48.1794C105.345 49.2408 100.705 49.2408 96.2521 48.1794C95.4555 48.0076 94.6233 48.1462 93.9253 48.5668C93.2273 48.9876 92.7161 49.6588 92.4961 50.4434L90.1601 58.6234L86.9601 57.0234C82.3721 57.0234 82.6801 65.0634 87.7601 65.0634H87.7741C88.7817 68.3246 90.8075 71.1774 93.5543 73.2036C96.3011 75.23 99.6247 76.3232 103.038 76.3232C106.451 76.3232 109.775 75.23 112.522 73.2036C115.269 71.1774 117.294 68.3246 118.302 65.0634C123.398 65.0554 123.716 57.0154 119.128 57.0154Z" fill="#E4E4E4" stroke="#110F04" stroke-width="4" stroke-linecap="round" stroke-linejoin="round"/>
<path d="M97.8376 55.4004C97.4424 55.4024 97.0568 55.5214 96.7292 55.7424C96.4016 55.9632 96.1468 56.2764 95.997 56.642C95.8472 57.0076 95.809 57.4094 95.8872 57.7966C95.9656 58.184 96.1568 58.5394 96.437 58.818C96.717 59.0968 97.0734 59.2862 97.4612 59.3626C97.8488 59.439 98.2504 59.3988 98.6152 59.2472C98.9802 59.0956 99.292 58.8392 99.5112 58.5104C99.7306 58.1818 99.8476 57.7956 99.8476 57.4004C99.845 56.869 99.632 56.3604 99.2554 55.9856C98.8788 55.6108 98.369 55.4004 97.8376 55.4004Z" fill="#110F04"/>
<path d="M108.289 55.4004C107.893 55.4004 107.507 55.5176 107.178 55.7374C106.849 55.9572 106.593 56.2696 106.441 56.635C106.29 57.0004 106.25 57.4026 106.327 57.7906C106.405 58.1786 106.595 58.5348 106.875 58.8146C107.155 59.0944 107.511 59.2848 107.899 59.362C108.287 59.4392 108.689 59.3996 109.054 59.2482C109.42 59.0968 109.732 58.8404 109.952 58.5116C110.172 58.1826 110.289 57.796 110.289 57.4004C110.286 56.8708 110.075 56.3636 109.7 55.989C109.326 55.6146 108.819 55.403 108.289 55.4004Z" fill="#110F04"/>
<path d="M93.4166 63.4445C94.3046 63.4445 95.0246 62.7247 95.0246 61.8365C95.0246 60.9485 94.3046 60.2285 93.4166 60.2285C92.5286 60.2285 91.8086 60.9485 91.8086 61.8365C91.8086 62.7247 92.5286 63.4445 93.4166 63.4445Z" fill="#2B2B2B"/>
<path d="M112.713 63.4445C113.601 63.4445 114.321 62.7247 114.321 61.8365C114.321 60.9485 113.601 60.2285 112.713 60.2285C111.825 60.2285 111.105 60.9485 111.105 61.8365C111.105 62.7247 111.825 63.4445 112.713 63.4445Z" fill="#2B2B2B"/>
<path d="M99.0469 67.0547C100.238 67.8479 101.637 68.2711 103.068 68.2711C104.499 68.2711 105.898 67.8479 107.089 67.0547" stroke="#110F04" stroke-width="4" stroke-linecap="round" stroke-linejoin="round"/>
<path d="M62.1689 115.402H25.7031V163.536H62.1689V115.402Z" fill="#2B2B2B"/>
<path d="M62.1689 115.402H25.7031V163.536H62.1689V115.402Z" stroke="#110F04" stroke-width="4" stroke-linecap="round" stroke-linejoin="round"/>
<path d="M154.064 115.402H117.598V163.536H154.064V115.402Z" fill="#2B2B2B"/>
<path d="M154.064 115.402H117.598V163.536H154.064V115.402Z" stroke="#110F04" stroke-width="4" stroke-linecap="round" stroke-linejoin="round"/>
<path d="M117.6 115.402H62.1719V131.446H117.6V115.402Z" fill="#E4E4E4"/>
<path d="M117.6 115.402H62.1719V131.446H117.6V115.402Z" stroke="#110F04" stroke-width="4" stroke-linecap="round" stroke-linejoin="round"/>
<path d="M117.6 131.445H62.1719V163.535H117.6V131.445Z" fill="#2B2B2B" stroke="#110F04" stroke-width="4" stroke-linecap="round" stroke-linejoin="round"/>
<path d="M156.981 112.484C156.981 113.258 156.673 114 156.126 114.546C155.579 115.093 154.837 115.4 154.063 115.4H25.7051C24.9317 115.4 24.1899 115.092 23.6431 114.545C23.0963 113.998 22.7891 113.256 22.7891 112.482C22.7891 111.709 23.0965 110.967 23.6433 110.42C24.1901 109.874 24.9319 109.566 25.7051 109.566H154.063C154.446 109.566 154.826 109.641 155.18 109.788C155.534 109.934 155.855 110.149 156.126 110.42C156.397 110.691 156.612 111.012 156.759 111.366C156.906 111.72 156.981 112.101 156.981 112.484Z" fill="#E4E4E4" stroke="#110F04" stroke-width="4" stroke-linecap="round" stroke-linejoin="round"/>
<path d="M52.8761 122.695H34.9961C33.8915 122.695 32.9961 123.591 32.9961 124.695V154.243C32.9961 155.348 33.8915 156.243 34.9961 156.243H52.8761C53.9807 156.243 54.8761 155.348 54.8761 154.243V124.695C54.8761 123.591 53.9807 122.695 52.8761 122.695Z" fill="#E4E4E4"/>
<path d="M144.771 122.695H126.891C125.786 122.695 124.891 123.591 124.891 124.695V154.243C124.891 155.348 125.786 156.243 126.891 156.243H144.771C145.875 156.243 146.771 155.348 146.771 154.243V124.695C146.771 123.591 145.875 122.695 144.771 122.695Z" fill="#E4E4E4"/>
<path d="M52.8761 122.695H34.9961C33.8915 122.695 32.9961 123.591 32.9961 124.695V154.243C32.9961 155.348 33.8915 156.243 34.9961 156.243H52.8761C53.9807 156.243 54.8761 155.348 54.8761 154.243V124.695C54.8761 123.591 53.9807 122.695 52.8761 122.695Z" stroke="#110F04" stroke-width="4" stroke-linecap="round" stroke-linejoin="round"/>
<path d="M144.771 122.695H126.891C125.786 122.695 124.891 123.591 124.891 124.695V154.243C124.891 155.348 125.786 156.243 126.891 156.243H144.771C145.875 156.243 146.771 155.348 146.771 154.243V124.695C146.771 123.591 145.875 122.695 144.771 122.695Z" stroke="#110F04" stroke-width="4" stroke-linecap="round" stroke-linejoin="round"/>
<path d="M147.685 97.8984H121.055C120.524 97.8984 120.015 98.1092 119.64 98.4842C119.265 98.8592 119.055 99.368 119.055 99.8984V109.568H147.685C148.215 109.568 148.724 109.358 149.099 108.983C149.474 108.608 149.685 108.099 149.685 107.568V99.8984C149.685 99.368 149.474 98.8592 149.099 98.4842C148.724 98.1092 148.215 97.8984 147.685 97.8984Z" fill="#E4E4E4" stroke="#110F04" stroke-width="4" stroke-linecap="round" stroke-linejoin="round"/>
<path d="M146.04 90.6016H132.182C131.408 90.6016 130.666 90.9088 130.12 91.4556C129.573 92.0026 129.266 92.7442 129.266 93.5176V97.8936H146.04C147.006 97.8936 147.934 97.5094 148.618 96.8256C149.301 96.142 149.686 95.2146 149.686 94.2476C149.686 93.2806 149.301 92.3532 148.618 91.6694C147.934 90.9858 147.006 90.6016 146.04 90.6016Z" fill="#E4E4E4" stroke="#110F04" stroke-width="4" stroke-linecap="round" stroke-linejoin="round"/>
<path d="M163.73 138.74H154.062V163.54H163.73C164.261 163.54 164.769 163.33 165.145 162.954C165.52 162.579 165.73 162.071 165.73 161.54V140.74C165.73 140.478 165.679 140.218 165.578 139.975C165.478 139.732 165.33 139.512 165.145 139.326C164.959 139.14 164.739 138.993 164.496 138.892C164.253 138.792 163.993 138.74 163.73 138.74Z" fill="#2B2B2B"/>
<path d="M154.062 146.039V163.537H163.631C164.187 163.537 164.722 163.316 165.115 162.922C165.509 162.528 165.73 161.994 165.73 161.437V146.037L154.062 146.039Z" fill="#2B2B2B"/>
<path d="M163.73 138.74H154.062V163.54H163.73C164.261 163.54 164.769 163.33 165.145 162.954C165.52 162.579 165.73 162.071 165.73 161.54V140.74C165.73 140.478 165.679 140.218 165.578 139.975C165.478 139.732 165.33 139.512 165.145 139.326C164.959 139.14 164.739 138.993 164.496 138.892C164.253 138.792 163.993 138.74 163.73 138.74Z" stroke="#110F04" stroke-width="4" stroke-linecap="round" stroke-linejoin="round"/>
<path d="M154.062 146.031H165.73" stroke="#110F04" stroke-width="4" stroke-linecap="round" stroke-linejoin="round"/>
<path d="M159.895 138.739V134.363" stroke="#110F04" stroke-width="4" stroke-linecap="round" stroke-linejoin="round"/>
<path d="M119.055 103.732H143.851" stroke="#110F04" stroke-width="4" stroke-linecap="round" stroke-linejoin="round"/>
</svg>
