<svg width="200" height="200" viewBox="0 0 200 200" fill="none" xmlns="http://www.w3.org/2000/svg">
<path d="M180.145 100.18C180.146 88.2405 177.475 76.4517 172.327 65.6787C167.18 54.9059 159.686 45.4217 150.396 37.9219C141.105 30.4221 130.254 25.0969 118.638 22.3369C107.022 19.5767 94.935 19.4518 83.264 21.9711C71.5932 24.4905 60.6342 29.5903 51.191 36.8963C41.7476 44.2025 34.0594 53.5297 28.6902 64.1941C23.321 74.8583 20.4068 86.5893 20.1614 98.5263C19.9162 110.464 22.346 122.304 27.2726 133.18H173.017C177.722 122.815 180.153 111.563 180.145 100.18Z" fill="#FFE221"/>
<path d="M21.1445 133.176H177.145" stroke="#110F04" stroke-width="4" stroke-linecap="round" stroke-linejoin="round"/>
<path d="M12.1445 133.176H17.1445" stroke="#110F04" stroke-width="4" stroke-linecap="round" stroke-linejoin="round"/>
<path d="M181.145 133.176H186.145" stroke="#110F04" stroke-width="4" stroke-linecap="round" stroke-linejoin="round"/>
<path d="M121.849 85.3379C113.281 85.3379 105.064 88.7415 99.0052 94.8001C92.9466 100.859 89.543 109.076 89.543 117.644V133.276H154.157V117.644C154.157 113.401 153.321 109.2 151.698 105.28C150.074 101.361 147.694 97.7993 144.694 94.7993C141.694 91.7995 138.132 89.4199 134.213 87.7965C130.293 86.1731 126.092 85.3377 121.849 85.3379Z" fill="#E4E4E4" stroke="#110F04" stroke-width="4" stroke-linecap="round" stroke-linejoin="round"/>
<path d="M111.429 87.0566C105.045 89.234 99.503 93.354 95.5782 98.8392C91.6536 104.324 89.5432 110.9 89.543 117.645V133.277H111.429V87.0566Z" fill="#2B2B2B"/>
<path d="M101.008 118.27V133.276" stroke="#110F04" stroke-width="4" stroke-linecap="round" stroke-linejoin="round"/>
<path d="M132.27 87.0566C138.653 89.2342 144.195 93.3542 148.12 98.8394C152.044 104.325 154.155 110.9 154.156 117.645V133.277H132.27V87.0566Z" fill="#2B2B2B"/>
<path d="M142.691 118.27V133.276" stroke="#110F04" stroke-width="4" stroke-linecap="round" stroke-linejoin="round"/>
<path d="M111.429 87.0566C105.045 89.234 99.503 93.354 95.5782 98.8392C91.6536 104.324 89.5432 110.9 89.543 117.645V133.277H111.429V87.0566Z" stroke="#110F04" stroke-width="4" stroke-linecap="round" stroke-linejoin="round"/>
<path d="M132.27 87.0566C138.653 89.2342 144.195 93.3542 148.12 98.8394C152.044 104.325 154.155 110.9 154.156 117.645V133.277H132.27V87.0566Z" stroke="#110F04" stroke-width="4" stroke-linecap="round" stroke-linejoin="round"/>
<path d="M121.846 95.7599C124.455 95.7605 127.007 95.0081 129.198 93.5933C131.39 92.1785 133.126 90.1613 134.198 87.7839C132.561 87.1053 130.87 86.5641 129.142 86.1659V79.0859H114.542V86.1659C112.815 86.5645 111.123 87.1057 109.484 87.7839C110.558 90.1625 112.296 92.1805 114.489 93.5953C116.682 95.0103 119.237 95.7619 121.846 95.7599Z" fill="#E4E4E4"/>
<path d="M121.846 95.7599C124.455 95.7605 127.007 95.0081 129.198 93.5933C131.39 92.1785 133.126 90.1613 134.198 87.7839C132.561 87.1053 130.87 86.5641 129.142 86.1659V79.0859H114.542V86.1659C112.815 86.5645 111.123 87.1057 109.484 87.7839C110.558 90.1625 112.296 92.1805 114.489 93.5953C116.682 95.0103 119.237 95.7619 121.846 95.7599Z" stroke="#110F04" stroke-width="4" stroke-linecap="round" stroke-linejoin="round"/>
<path d="M137.481 106.182H106.217C105.066 106.182 104.133 107.115 104.133 108.266V125.984C104.133 127.135 105.066 128.068 106.217 128.068H137.481C138.632 128.068 139.565 127.135 139.565 125.984V108.266C139.565 107.115 138.632 106.182 137.481 106.182Z" fill="#E4E4E4" stroke="#110F04" stroke-width="4" stroke-linecap="round" stroke-linejoin="round"/>
<path d="M139.565 110.35H104.133V123.898H139.565V110.35Z" fill="#2B2B2B" stroke="#110F04" stroke-width="4" stroke-linecap="round" stroke-linejoin="round"/>
<path d="M129.417 103.4C129.209 102.984 128.89 102.635 128.495 102.391C128.1 102.147 127.645 102.018 127.181 102.018H116.515C116.05 102.018 115.595 102.147 115.199 102.391C114.804 102.635 114.485 102.984 114.277 103.4C113.131 105.162 112.507 107.212 112.477 109.314V128.072H131.235V109.308C131.198 107.206 130.568 105.158 129.417 103.4Z" fill="#E4E4E4" stroke="#110F04" stroke-width="4" stroke-linecap="round" stroke-linejoin="round"/>
<path d="M121.849 124.94C127.029 124.94 131.229 120.74 131.229 115.56C131.229 110.379 127.029 106.18 121.849 106.18C116.668 106.18 112.469 110.379 112.469 115.56C112.469 120.74 116.668 124.94 121.849 124.94Z" fill="#E4E4E4" stroke="#110F04" stroke-width="4" stroke-linecap="round" stroke-linejoin="round"/>
<path d="M121.847 120.77C124.724 120.77 127.057 118.437 127.057 115.56C127.057 112.682 124.724 110.35 121.847 110.35C118.969 110.35 116.637 112.682 116.637 115.56C116.637 118.437 118.969 120.77 121.847 120.77Z" fill="#2B2B2B"/>
<path d="M121.847 120.77C124.724 120.77 127.057 118.437 127.057 115.56C127.057 112.682 124.724 110.35 121.847 110.35C118.969 110.35 116.637 112.682 116.637 115.56C116.637 118.437 118.969 120.77 121.847 120.77Z" stroke="#110F04" stroke-width="4" stroke-linecap="round" stroke-linejoin="round"/>
<path d="M136.436 96.1764V106.176H131.236V96.1764C131.37 93.6874 130.633 91.2294 129.152 89.2244V82.5684C131.384 84.071 133.214 86.0964 134.484 88.4682C135.753 90.84 136.424 93.4862 136.436 96.1764Z" fill="#2B2B2B" stroke="#110F04" stroke-width="4" stroke-linecap="round" stroke-linejoin="round"/>
<path d="M107.258 96.1764V106.176H112.47V96.1764C112.336 93.6874 113.073 91.2294 114.554 89.2244V82.5684C112.32 84.0694 110.487 86.0942 109.216 88.4662C107.944 90.8382 107.272 93.4852 107.258 96.1764Z" fill="#2B2B2B" stroke="#110F04" stroke-width="4" stroke-linecap="round" stroke-linejoin="round"/>
<path d="M32.1406 160.564C32.1406 162.578 49.0126 164.212 69.8206 164.212C90.6286 164.212 107.503 162.578 107.503 160.564C107.503 158.55 90.6326 156.916 69.8206 156.916C49.0086 156.916 32.1406 158.55 32.1406 160.564Z" fill="#2B2B2B"/>
<path d="M81.9777 76.498H60.0977V95.946H81.9777V76.498Z" fill="#2B2B2B"/>
<path d="M81.9777 76.498H60.0977V95.946H81.9777V76.498Z" stroke="#110F04" stroke-width="4" stroke-linecap="round" stroke-linejoin="round"/>
<path d="M85.6215 63.1289H56.4515C55.1083 63.1289 54.0195 64.2177 54.0195 65.5609V82.5769C54.0195 83.9201 55.1083 85.0089 56.4515 85.0089H85.6215C86.9647 85.0089 88.0535 83.9201 88.0535 82.5769V65.5609C88.0535 64.2177 86.9647 63.1289 85.6215 63.1289Z" fill="#E4E4E4" stroke="#110F04" stroke-width="4" stroke-linecap="round" stroke-linejoin="round"/>
<path d="M83.1892 95.9453H58.8812C57.538 95.9453 56.4492 97.0341 56.4492 98.3773V112.961C56.4492 114.305 57.538 115.393 58.8812 115.393H83.1892C84.5324 115.393 85.6212 114.305 85.6212 112.961V98.3773C85.6212 97.0341 84.5324 95.9453 83.1892 95.9453Z" fill="#E4E4E4" stroke="#110F04" stroke-width="4" stroke-linecap="round" stroke-linejoin="round"/>
<path d="M81.9768 67.9902H60.0988C59.4272 67.9902 58.8828 68.5346 58.8828 69.2062V78.9302C58.8828 79.6018 59.4272 80.1462 60.0988 80.1462H81.9768C82.6484 80.1462 83.1928 79.6018 83.1928 78.9302V69.2062C83.1928 68.5346 82.6484 67.9902 81.9768 67.9902Z" fill="#2B2B2B"/>
<path d="M81.9768 67.9902H60.0988C59.4272 67.9902 58.8828 68.5346 58.8828 69.2062V78.9302C58.8828 79.6018 59.4272 80.1462 60.0988 80.1462H81.9768C82.6484 80.1462 83.1928 79.6018 83.1928 78.9302V69.2062C83.1928 68.5346 82.6484 67.9902 81.9768 67.9902Z" stroke="#110F04" stroke-width="4" stroke-linecap="round" stroke-linejoin="round"/>
<path d="M75.8962 105.67H66.1722C65.5276 105.671 64.9094 105.927 64.4538 106.383C63.9982 106.839 63.7422 107.457 63.7422 108.102V115.4H78.3282V108.102C78.3282 107.783 78.2652 107.466 78.143 107.171C78.0208 106.876 77.8416 106.608 77.6158 106.382C77.39 106.156 77.122 105.977 76.8268 105.855C76.5318 105.733 76.2156 105.67 75.8962 105.67Z" fill="#2B2B2B" stroke="#110F04" stroke-width="4" stroke-linecap="round" stroke-linejoin="round"/>
<path d="M97.7779 122.688H39.4359C38.0927 122.688 37.0039 123.776 37.0039 125.119V156.721C37.0039 158.065 38.0927 159.154 39.4359 159.154H97.7779C99.1211 159.154 100.21 158.065 100.21 156.721V125.119C100.21 123.776 99.1211 122.688 97.7779 122.688Z" fill="#E4E4E4"/>
<path d="M100.21 132.412H37.0039V151.86H100.21V132.412Z" fill="#2B2B2B"/>
<path d="M100.21 132.412H37.0039V151.86H100.21V132.412Z" stroke="#110F04" stroke-width="4" stroke-linecap="round" stroke-linejoin="round"/>
<path d="M92.9167 117.826H90.4847C89.8401 117.826 89.2221 118.082 88.7663 118.538C88.3107 118.994 88.0547 119.612 88.0547 120.256V122.688H95.3467V120.256C95.3469 119.937 95.2843 119.621 95.1623 119.326C95.0401 119.031 94.8613 118.763 94.6355 118.537C94.4099 118.312 94.1419 118.133 93.8469 118.011C93.5519 117.889 93.2359 117.826 92.9167 117.826Z" fill="#2B2B2B" stroke="#110F04" stroke-width="4" stroke-linecap="round" stroke-linejoin="round"/>
<path d="M49.1573 117.826H44.2953C43.6505 117.826 43.0323 118.082 42.5763 118.538C42.1203 118.993 41.8637 119.612 41.8633 120.256V122.688H51.5873V120.256C51.5875 119.937 51.5249 119.621 51.4029 119.326C51.2807 119.031 51.1019 118.763 50.8761 118.537C50.6505 118.312 50.3825 118.133 50.0875 118.011C49.7925 117.889 49.4765 117.826 49.1573 117.826Z" fill="#2B2B2B" stroke="#110F04" stroke-width="4" stroke-linecap="round" stroke-linejoin="round"/>
<path d="M97.7779 122.688H39.4359C38.0927 122.688 37.0039 123.776 37.0039 125.119V156.721C37.0039 158.065 38.0927 159.154 39.4359 159.154H97.7779C99.1211 159.154 100.21 158.065 100.21 156.721V125.119C100.21 123.776 99.1211 122.688 97.7779 122.688Z" stroke="#110F04" stroke-width="4" stroke-linecap="round" stroke-linejoin="round"/>
<path d="M89.2691 144.565C90.2361 144.565 91.1635 144.181 91.8471 143.498C92.5309 142.814 92.9151 141.886 92.9151 140.919C92.9151 139.952 92.5309 139.025 91.8471 138.341C91.1635 137.658 90.2361 137.273 89.2691 137.273H85.6211V144.565H89.2691Z" fill="#E4E4E4" stroke="#110F04" stroke-width="4" stroke-linecap="round" stroke-linejoin="round"/>
<path d="M79.2594 115.4H62.8154C62.364 115.401 61.9216 115.526 61.5376 115.764C61.1536 116.001 60.8432 116.341 60.6414 116.744L58.2414 121.532C57.0578 123.895 56.4416 126.502 56.4414 129.144V159.152H85.6214V129.138C85.62 126.496 85.0038 123.89 83.8214 121.526L81.4214 116.738C81.2194 116.338 80.9106 116.001 80.5292 115.764C80.1476 115.528 79.708 115.402 79.2594 115.4Z" fill="#E4E4E4"/>
<path d="M79.2594 115.4H62.8154C62.364 115.401 61.9216 115.526 61.5376 115.764C61.1536 116.001 60.8432 116.341 60.6414 116.744L58.2414 121.532C57.0578 123.895 56.4416 126.502 56.4414 129.144V159.152H85.6214V129.138C85.62 126.496 85.0038 123.89 83.8214 121.526L81.4214 116.738C81.2194 116.338 80.9106 116.001 80.5292 115.764C80.1476 115.528 79.708 115.402 79.2594 115.4Z" stroke="#110F04" stroke-width="4" stroke-linecap="round" stroke-linejoin="round"/>
<path d="M71.0352 156.723C79.0908 156.723 85.6212 150.192 85.6212 142.137C85.6212 134.081 79.0908 127.551 71.0352 127.551C62.9796 127.551 56.4492 134.081 56.4492 142.137C56.4492 150.192 62.9796 156.723 71.0352 156.723Z" fill="#E4E4E4"/>
<path d="M71.0365 151.86C76.4069 151.86 80.7605 147.507 80.7605 142.136C80.7605 136.766 76.4069 132.412 71.0365 132.412C65.6661 132.412 61.3125 136.766 61.3125 142.136C61.3125 147.507 65.6661 151.86 71.0365 151.86Z" fill="#2B2B2B"/>
<path d="M71.0352 156.723C79.0908 156.723 85.6212 150.192 85.6212 142.137C85.6212 134.081 79.0908 127.551 71.0352 127.551C62.9796 127.551 56.4492 134.081 56.4492 142.137C56.4492 150.192 62.9796 156.723 71.0352 156.723Z" stroke="#110F04" stroke-width="4" stroke-linecap="round" stroke-linejoin="round"/>
<path d="M71.0365 151.86C76.4069 151.86 80.7605 147.507 80.7605 142.136C80.7605 136.766 76.4069 132.412 71.0365 132.412C65.6661 132.412 61.3125 136.766 61.3125 142.136C61.3125 147.507 65.6661 151.86 71.0365 151.86Z" stroke="#110F04" stroke-width="4" stroke-linecap="round" stroke-linejoin="round"/>
<path d="M63.7422 122.688H78.3282" stroke="#110F04" stroke-width="4" stroke-linecap="round" stroke-linejoin="round"/>
<path d="M46.7266 132.412V151.86" stroke="#110F04" stroke-width="4" stroke-linecap="round" stroke-linejoin="round"/>
<path d="M44.2969 127.551H51.5889" stroke="#110F04" stroke-width="4" stroke-linecap="round" stroke-linejoin="round"/>
<path d="M142.693 57.2003V52.0003C142.693 46.4717 140.496 41.1693 136.587 37.2599C132.678 33.3505 127.375 31.1543 121.847 31.1543C116.318 31.1543 111.016 33.3505 107.106 37.2599C103.197 41.1693 101.001 46.4717 101.001 52.0003V57.2003C99.9107 57.2241 98.8735 57.6739 98.1113 58.4531C97.3489 59.2323 96.9219 60.2791 96.9219 61.3693C96.9219 62.4595 97.3489 63.5063 98.1113 64.2855C98.8735 65.0647 99.9107 65.5145 101.001 65.5383C101.089 65.5383 101.169 65.5183 101.257 65.5123C101.994 70.4447 104.478 74.9481 108.257 78.2033C112.035 81.4587 116.856 83.2491 121.844 83.2491C126.831 83.2491 131.652 81.4587 135.43 78.2033C139.209 74.9481 141.693 70.4447 142.431 65.5123C142.517 65.5123 142.599 65.5383 142.687 65.5383C143.776 65.5145 144.814 65.0647 145.576 64.2855C146.338 63.5063 146.765 62.4595 146.765 61.3693C146.765 60.2791 146.338 59.2323 145.576 58.4531C144.814 57.6739 143.776 57.2241 142.687 57.2003H142.693Z" fill="#E4E4E4" stroke="#110F04" stroke-width="4" stroke-linecap="round" stroke-linejoin="round"/>
<path d="M109.864 67.6378C111.303 67.6378 112.47 66.471 112.47 65.0318C112.47 63.5926 111.303 62.4258 109.864 62.4258C108.424 62.4258 107.258 63.5926 107.258 65.0318C107.258 66.471 108.424 67.6378 109.864 67.6378Z" fill="#2B2B2B"/>
<path d="M133.833 67.6378C135.272 67.6378 136.439 66.471 136.439 65.0318C136.439 63.5926 135.272 62.4258 133.833 62.4258C132.393 62.4258 131.227 63.5926 131.227 65.0318C131.227 66.471 132.393 67.6378 133.833 67.6378Z" fill="#2B2B2B"/>
<path d="M115.578 70.3242C117.269 71.9342 119.514 72.8322 121.849 72.8322C124.184 72.8322 126.429 71.9342 128.12 70.3242" stroke="#110F04" stroke-width="4" stroke-linecap="round" stroke-linejoin="round"/>
<path d="M116.637 58.2578C116.378 57.6402 115.942 57.113 115.384 56.7424C114.827 56.3716 114.172 56.1738 113.502 56.1738C112.832 56.1738 112.178 56.3716 111.62 56.7424C111.062 57.113 110.626 57.6402 110.367 58.2578" stroke="#110F04" stroke-width="4" stroke-linecap="round" stroke-linejoin="round"/>
<path d="M133.329 58.2422C133.069 57.6246 132.634 57.0974 132.076 56.7268C131.518 56.356 130.863 56.1582 130.194 56.1582C129.524 56.1582 128.869 56.356 128.311 56.7268C127.754 57.0974 127.318 57.6246 127.059 58.2422" stroke="#110F04" stroke-width="4" stroke-linecap="round" stroke-linejoin="round"/>
<path d="M137.184 28.6912C134.406 24.9892 127.532 24.7612 121.852 24.8912C86.4016 24.0512 95.7976 61.3392 97.4516 58.8912C98.0282 58.274 98.7976 57.871 99.6332 57.7482C100.469 57.6254 101.322 57.79 102.052 58.2152C105.72 52.2312 107.262 49.8772 107.262 45.7092C107.748 49.3512 134.186 47.0472 135.284 38.8052C134.836 46.5352 137.984 52.2312 141.654 58.2152C142.394 57.83 143.237 57.688 144.063 57.8094C144.889 57.9308 145.655 58.3092 146.254 58.8912C147.936 60.5752 153.682 32.3572 137.184 28.6912Z" fill="#E4E4E4"/>
<path d="M137.184 28.6912C134.406 24.9892 127.532 24.7612 121.852 24.8912C86.4016 24.0512 95.7976 61.3392 97.4516 58.8912C98.0282 58.274 98.7976 57.871 99.6332 57.7482C100.469 57.6254 101.322 57.79 102.052 58.2152C105.72 52.2312 107.262 49.8772 107.262 45.7092C107.748 49.3512 134.186 47.0472 135.284 38.8052C134.836 46.5352 137.984 52.2312 141.654 58.2152C142.394 57.83 143.237 57.688 144.063 57.8094C144.889 57.9308 145.655 58.3092 146.254 58.8912C147.936 60.5752 153.682 32.3572 137.184 28.6912Z" stroke="#110F04" stroke-width="4" stroke-linecap="round" stroke-linejoin="round"/>
</svg>
