<svg width="200" height="200" viewBox="0 0 200 200" fill="none" xmlns="http://www.w3.org/2000/svg">
<path d="M20 88.9377C19.9984 101.034 22.6694 112.978 27.817 123.893C32.9648 134.807 40.4586 144.416 49.7488 152.015C59.039 159.613 69.8902 165.008 81.5066 167.805C93.1228 170.601 105.21 170.728 116.88 168.175C128.551 165.623 139.51 160.456 148.954 153.054C158.397 145.651 166.085 136.202 171.454 125.397C176.824 114.592 179.738 102.707 179.983 90.6132C180.228 78.5191 177.799 66.5228 172.872 55.5038L27.128 55.5038C22.4212 66.0045 19.9906 77.4052 20 88.9377Z" fill="#FFE221"/>
<path d="M172.676 113.812H27.3164V34.0562C27.3164 32.7153 27.8413 31.4295 28.7758 30.4809C29.7102 29.5329 30.9776 29 32.2991 29H167.693C169.015 29 170.282 29.5329 171.216 30.4809C172.151 31.4295 172.676 32.7153 172.676 34.0562V113.812Z" fill="#2B2B2B"/>
<path d="M125.617 168.92H74.375C77.7498 166.688 80.5179 163.665 82.4334 160.118C84.3484 156.57 85.352 152.609 85.355 148.585V143.496H114.637V148.585C114.639 152.612 115.641 156.577 117.557 160.127C119.472 163.678 122.241 166.705 125.617 168.94V168.92Z" fill="#E4E4E4" stroke="#110F04" stroke-width="4" stroke-linecap="round" stroke-linejoin="round"/>
<path d="M172.676 113.812H27.3164V138.408C27.3164 139.758 27.8413 141.052 28.7758 142.007C29.7102 142.961 30.9776 143.497 32.2991 143.497H167.693C169.015 143.497 170.282 142.961 171.216 142.007C172.151 141.052 172.676 139.758 172.676 138.408V113.812Z" fill="#E4E4E4" stroke="#110F04" stroke-width="4" stroke-linecap="round" stroke-linejoin="round"/>
<path d="M76.049 79.8867H66.4275C65.0412 79.8867 63.918 81.0254 63.918 82.4308V92.1848C63.918 93.5896 65.0412 94.7288 66.4275 94.7288H76.049C77.4347 94.7288 78.5585 93.5896 78.5585 92.1848V82.4308C78.5585 81.0254 77.4347 79.8867 76.049 79.8867Z" fill="#FFE221" stroke="#110F04" stroke-width="4" stroke-linecap="round" stroke-linejoin="round"/>
<path d="M105.33 68.2246H95.7087C94.3225 68.2246 93.1992 69.3865 93.1992 70.8205V92.1325C93.1992 93.5659 94.3225 94.7284 95.7087 94.7284H105.33C106.716 94.7284 107.84 93.5659 107.84 92.1325V70.8205C107.84 69.3865 106.716 68.2246 105.33 68.2246Z" fill="#FFE221" stroke="#110F04" stroke-width="4" stroke-linecap="round" stroke-linejoin="round"/>
<path d="M133.745 54.4434H124.811C123.523 54.4434 122.48 55.5673 122.48 56.9543V92.2181C122.48 93.6047 123.523 94.7291 124.811 94.7291H133.745C135.032 94.7291 136.075 93.6047 136.075 92.2181V56.9543C136.075 55.5673 135.032 54.4434 133.745 54.4434Z" fill="#FFE221" stroke="#110F04" stroke-width="4" stroke-linecap="round" stroke-linejoin="round"/>
</svg>
