<svg width="200" height="200" viewBox="0 0 200 200" fill="none" xmlns="http://www.w3.org/2000/svg">
<path d="M174.219 107.725C174.22 96.2756 171.646 84.9708 166.684 74.6401C161.722 64.3097 154.499 55.2149 145.545 48.0231C136.59 40.8312 126.131 35.7247 114.935 33.078C103.738 30.4312 92.0881 30.3114 80.8388 32.7272C69.5897 35.1432 59.0267 40.0336 49.9247 47.0396C40.8225 54.0458 33.4121 62.99 28.2369 73.2165C23.0617 83.4428 20.2528 94.6922 20.0163 106.139C19.7799 117.586 22.1219 128.941 26.8705 139.37L167.348 139.37C171.884 129.431 174.227 118.64 174.219 107.725Z" fill="#FFE221"/>
<path d="M20.9609 139.365L171.324 139.365" stroke="#110F04" stroke-width="4" stroke-linecap="round" stroke-linejoin="round"/>
<path d="M175.18 139.365L179.999 139.365" stroke="#110F04" stroke-width="4" stroke-linecap="round" stroke-linejoin="round"/>
<path d="M97.9375 125.072L97.9375 139.462" stroke="#110F04" stroke-width="4" stroke-linecap="round" stroke-linejoin="round"/>
<path d="M108.703 59.1777L87.6133 59.1777L87.6133 77.8272L108.703 77.8272L108.703 59.1777Z" fill="#2B2B2B"/>
<path d="M112.218 46.3555L84.1019 46.3555C82.8073 46.3555 81.7578 47.3996 81.7578 48.6876L81.7578 65.0049C81.7578 66.293 82.8073 67.3371 84.1019 67.3371L112.218 67.3371C113.513 67.3371 114.562 66.293 114.562 65.0049L114.562 48.6876C114.562 47.3996 113.513 46.3555 112.218 46.3555Z" fill="#E4E4E4" stroke="#110F04" stroke-width="4" stroke-linecap="round" stroke-linejoin="round"/>
<path d="M109.871 77.8262L86.4418 77.8262C85.1471 77.8262 84.0977 78.8703 84.0977 80.1583L84.0977 94.1435C84.0977 95.4315 85.1471 96.4756 86.4418 96.4756L109.871 96.4756C111.166 96.4756 112.216 95.4315 112.216 94.1435L112.216 80.1583C112.216 78.8703 111.166 77.8262 109.871 77.8262Z" fill="#E4E4E4" stroke="#110F04" stroke-width="4" stroke-linecap="round" stroke-linejoin="round"/>
<path d="M108.701 51.0195L87.6135 51.0195C86.9661 51.0195 86.4414 51.5416 86.4414 52.1856L86.4414 61.5103C86.4414 62.1544 86.9661 62.6764 87.6135 62.6764L108.701 62.6764C109.348 62.6764 109.873 62.1544 109.873 61.5103L109.873 52.1856C109.873 51.5416 109.348 51.0195 108.701 51.0195Z" stroke="#110F04" stroke-width="4" stroke-linecap="round" stroke-linejoin="round"/>
<path d="M102.844 87.1523L93.4711 87.1523C92.8498 87.1529 92.2539 87.3988 91.8148 87.8361C91.3757 88.2733 91.1289 88.8664 91.1289 89.4845L91.1289 96.4828L105.188 96.4828L105.188 89.4845C105.188 89.1782 105.127 88.875 105.009 88.5921C104.892 88.309 104.719 88.052 104.501 87.8355C104.284 87.6188 104.025 87.4471 103.741 87.3299C103.456 87.2128 103.152 87.1523 102.844 87.1523Z" fill="#2B2B2B" stroke="#110F04" stroke-width="4" stroke-linecap="round" stroke-linejoin="round"/>
<path d="M123.934 103.471L67.6996 103.471C66.4049 103.471 65.3555 104.515 65.3555 105.803L65.3555 136.107C65.3555 137.395 66.4049 138.439 67.6996 138.439L123.934 138.439C125.228 138.439 126.278 137.395 126.278 136.107L126.278 105.803C126.278 104.515 125.228 103.471 123.934 103.471Z" fill="#E4E4E4"/>
<path d="M126.278 112.795L65.3555 112.795L65.3555 131.444L126.278 131.444L126.278 112.795Z" fill="#2B2B2B"/>
<path d="M119.249 98.8105H116.905C116.283 98.8105 115.688 99.056 115.248 99.4931C114.809 99.93 114.562 100.523 114.563 101.141V103.473L121.591 103.473V101.141C121.591 100.835 121.531 100.532 121.413 100.249C121.295 99.9659 121.123 99.7089 120.906 99.4925C120.688 99.276 120.43 99.1044 120.145 98.9874C119.861 98.8704 119.556 98.8104 119.249 98.8105Z" fill="#2B2B2B" stroke="#110F04" stroke-width="4" stroke-linecap="round" stroke-linejoin="round"/>
<path d="M77.0734 98.8105L72.3871 98.8105C71.7656 98.8105 71.1697 99.056 70.7302 99.4929C70.2907 99.9298 70.0434 100.523 70.043 101.141V103.473L79.4156 103.473V101.141C79.4158 100.835 79.3555 100.532 79.2379 100.249C79.1201 99.9659 78.9478 99.7089 78.7301 99.4925C78.5127 99.276 78.2543 99.1044 77.97 98.9874C77.6857 98.8704 77.3811 98.8104 77.0734 98.8105Z" fill="#2B2B2B" stroke="#110F04" stroke-width="4" stroke-linecap="round" stroke-linejoin="round"/>
<path d="M115.735 124.45C116.667 124.45 117.561 124.081 118.22 123.426C118.879 122.77 119.249 121.881 119.249 120.953C119.249 120.026 118.879 119.137 118.22 118.481C117.561 117.825 116.667 117.457 115.735 117.457L112.219 117.457L112.219 124.45L115.735 124.45Z" fill="#E4E4E4" stroke="#110F04" stroke-width="4" stroke-linecap="round" stroke-linejoin="round"/>
<path d="M106.087 96.4824L90.2374 96.4824C89.8023 96.4826 89.3759 96.6032 89.0058 96.8309C88.6357 97.0585 88.3365 97.3842 88.142 97.7712L85.8287 102.363C84.6879 104.629 84.0939 107.128 84.0938 109.662L84.0938 138.438L112.219 138.438L112.219 109.656C112.218 107.122 111.624 104.623 110.484 102.357L108.171 97.7655C107.976 97.3811 107.679 97.058 107.311 96.8315C106.943 96.605 106.52 96.4841 106.087 96.4824Z" stroke="#110F04" stroke-width="4" stroke-linecap="round" stroke-linejoin="round"/>
<path d="M98.1566 136.107C105.921 136.107 112.216 129.845 112.216 122.12C112.216 114.395 105.921 108.133 98.1566 108.133C90.3921 108.133 84.0977 114.395 84.0977 122.12C84.0977 129.845 90.3921 136.107 98.1566 136.107Z" fill="#E4E4E4"/>
<path d="M98.1566 136.107C105.921 136.107 112.216 129.845 112.216 122.12C112.216 114.395 105.921 108.133 98.1566 108.133C90.3921 108.133 84.0977 114.395 84.0977 122.12C84.0977 129.845 90.3921 136.107 98.1566 136.107Z" stroke="#110F04" stroke-width="4" stroke-linecap="round" stroke-linejoin="round"/>
<path d="M98.1578 131.444C103.334 131.444 107.53 127.27 107.53 122.12C107.53 116.97 103.334 112.795 98.1578 112.795C92.9814 112.795 88.7852 116.97 88.7852 122.12C88.7852 127.27 92.9814 131.444 98.1578 131.444Z" stroke="#110F04" stroke-width="4" stroke-linecap="round" stroke-linejoin="round"/>
<path d="M74.7305 112.795L74.7305 131.444" stroke="#110F04" stroke-width="4" stroke-linecap="round" stroke-linejoin="round"/>
<path d="M72.3867 108.133L79.4152 108.133" stroke="#110F04" stroke-width="4" stroke-linecap="round" stroke-linejoin="round"/>
</svg>
