<svg width="72" height="72" viewBox="0 0 72 72" fill="none" xmlns="http://www.w3.org/2000/svg">
<path d="M21.6008 0.800781C10.1328 0.800781 0.800781 10.1328 0.800781 21.6008V50.4008C0.800781 61.8688 10.1328 71.2008 21.6008 71.2008H50.4008C61.8688 71.2008 71.2008 61.8688 71.2008 50.4008V21.6008C71.2008 10.1328 61.8688 0.800781 50.4008 0.800781H21.6008ZM21.6008 4.00078H50.4008C60.1392 4.00078 68.0008 11.8624 68.0008 21.6008V50.4008C68.0008 60.1392 60.1392 68.0008 50.4008 68.0008H21.6008C11.8624 68.0008 4.00078 60.1392 4.00078 50.4008V21.6008C4.00078 11.8624 11.8624 4.00078 21.6008 4.00078ZM55.2008 13.6008C54.3521 13.6008 53.5382 13.9379 52.938 14.538C52.3379 15.1382 52.0008 15.9521 52.0008 16.8008C52.0008 17.6495 52.3379 18.4634 52.938 19.0635C53.5382 19.6636 54.3521 20.0008 55.2008 20.0008C56.0495 20.0008 56.8634 19.6636 57.4635 19.0635C58.0636 18.4634 58.4008 17.6495 58.4008 16.8008C58.4008 15.9521 58.0636 15.1382 57.4635 14.538C56.8634 13.9379 56.0495 13.6008 55.2008 13.6008ZM36.0008 18.4008C26.2995 18.4008 18.4008 26.2995 18.4008 36.0008C18.4008 45.702 26.2995 53.6008 36.0008 53.6008C45.702 53.6008 53.6008 45.702 53.6008 36.0008C53.6008 26.2995 45.702 18.4008 36.0008 18.4008ZM36.0008 21.6008C43.9726 21.6008 50.4008 28.0289 50.4008 36.0008C50.4008 43.9726 43.9726 50.4008 36.0008 50.4008C28.0289 50.4008 21.6008 43.9726 21.6008 36.0008C21.6008 28.0289 28.0289 21.6008 36.0008 21.6008Z" fill="#E4E4E4"/>
</svg>
