<svg width="44" height="44" viewBox="0 0 44 44" fill="none" xmlns="http://www.w3.org/2000/svg">
<path d="M13.3609 0.880859C6.48004 0.880859 0.880859 6.48004 0.880859 13.3609V30.6409C0.880859 37.5217 6.48004 43.1209 13.3609 43.1209H30.6409C37.5217 43.1209 43.1209 37.5217 43.1209 30.6409V13.3609C43.1209 6.48004 37.5217 0.880859 30.6409 0.880859H13.3609ZM13.3609 2.80086H30.6409C36.4839 2.80086 41.2009 7.51784 41.2009 13.3609V30.6409C41.2009 36.4839 36.4839 41.2009 30.6409 41.2009H13.3609C7.51784 41.2009 2.80086 36.4839 2.80086 30.6409V13.3609C2.80086 7.51784 7.51784 2.80086 13.3609 2.80086ZM33.5209 8.56086C33.0116 8.56086 32.5233 8.76314 32.1632 9.12321C31.8031 9.48328 31.6009 9.97164 31.6009 10.4809C31.6009 10.9901 31.8031 11.4784 32.1632 11.8385C32.5233 12.1986 33.0116 12.4009 33.5209 12.4009C34.0301 12.4009 34.5184 12.1986 34.8785 11.8385C35.2386 11.4784 35.4409 10.9901 35.4409 10.4809C35.4409 9.97164 35.2386 9.48328 34.8785 9.12321C34.5184 8.76314 34.0301 8.56086 33.5209 8.56086ZM22.0009 11.4409C16.1801 11.4409 11.4409 16.1801 11.4409 22.0009C11.4409 27.8216 16.1801 32.5609 22.0009 32.5609C27.8216 32.5609 32.5609 27.8216 32.5609 22.0009C32.5609 16.1801 27.8216 11.4409 22.0009 11.4409ZM22.0009 13.3609C26.784 13.3609 30.6409 17.2177 30.6409 22.0009C30.6409 26.784 26.784 30.6409 22.0009 30.6409C17.2177 30.6409 13.3609 26.784 13.3609 22.0009C13.3609 17.2177 17.2177 13.3609 22.0009 13.3609Z" fill="#110F04"/>
</svg>
