<svg width="24" height="24" viewBox="0 0 24 24" fill="none" xmlns="http://www.w3.org/2000/svg">
<g clip-path="url(#clip0_1006_672)">
<path d="M15.016 22.286C16.0717 22.9671 17.3297 23.2639 18.5785 23.1265C19.8273 22.9892 20.9907 22.426 21.8731 21.5318L22.6446 20.7775C22.9828 20.4315 23.1721 19.967 23.1721 19.4832C23.1721 18.9994 22.9828 18.5348 22.6446 18.1889L19.3703 14.9489C19.0273 14.6118 18.5655 14.4229 18.0846 14.4229C17.6036 14.4229 17.1419 14.6118 16.7989 14.9489C16.4529 15.2871 15.9884 15.4765 15.5046 15.4765C15.0208 15.4765 14.5562 15.2871 14.2103 14.9489L9.06743 9.80604C8.89587 9.63697 8.75963 9.43548 8.66664 9.21328C8.57365 8.99109 8.52577 8.75262 8.52577 8.51175C8.52577 8.27088 8.57365 8.03242 8.66664 7.81022C8.75963 7.58803 8.89587 7.38653 9.06743 7.21747C9.40456 6.87443 9.59346 6.41271 9.59346 5.93175C9.59346 5.45079 9.40456 4.98907 9.06743 4.64604L5.81029 1.38889C5.46436 1.05069 4.99979 0.861328 4.51601 0.861328C4.03222 0.861328 3.56765 1.05069 3.22172 1.38889L2.46743 2.16032C1.57317 3.04274 1.01001 4.20615 0.87264 5.45495C0.735273 6.70375 1.03208 7.96176 1.71315 9.01747C5.2618 14.2473 9.77704 18.7509 15.016 22.286Z" stroke="#E4E4E4" stroke-width="2" stroke-linecap="round" stroke-linejoin="round"/>
</g>
<defs>
<clipPath id="clip0_1006_672">
<rect width="24" height="24" fill="white"/>
</clipPath>
</defs>
</svg>
