<svg width="48" height="48" viewBox="0 0 48 48" fill="none" xmlns="http://www.w3.org/2000/svg">
<g clip-path="url(#clip0_258_449)">
<path d="M30.034 44.5721C32.1454 45.9342 34.6614 46.5278 37.159 46.2531C39.6566 45.9784 41.9834 44.852 43.7483 43.0635L45.2911 41.5549C45.9675 40.8631 46.3462 39.9339 46.3462 38.9664C46.3462 37.9988 45.9675 37.0696 45.2911 36.3778L38.7425 29.8978C38.0565 29.2235 37.133 28.8457 36.1711 28.8457C35.2092 28.8457 34.2857 29.2235 33.5997 29.8978C32.9078 30.5742 31.9787 30.9529 31.0111 30.9529C30.0435 30.9529 29.1144 30.5742 28.4225 29.8978L18.1368 19.6121C17.7937 19.2739 17.5212 18.871 17.3352 18.4266C17.1493 17.9822 17.0535 17.5052 17.0535 17.0235C17.0535 16.5418 17.1493 16.0648 17.3352 15.6204C17.5212 15.1761 17.7937 14.7731 18.1368 14.4349C18.8111 13.7489 19.1889 12.8254 19.1889 11.8635C19.1889 10.9016 18.8111 9.97814 18.1368 9.29207L11.6225 2.77779C10.9307 2.10138 10.0015 1.72266 9.03396 1.72266C8.06639 1.72266 7.13725 2.10138 6.44539 2.77779L4.93682 4.32065C3.14829 6.08548 2.02197 8.41231 1.74723 10.9099C1.4725 13.4075 2.06611 15.9235 3.42825 18.0349C10.5255 28.4946 19.556 37.5018 30.034 44.5721Z" stroke="#FFE221" stroke-width="3.42857" stroke-linecap="round" stroke-linejoin="round"/>
</g>
<defs>
<clipPath id="clip0_258_449">
<rect width="48" height="48" fill="white"/>
</clipPath>
</defs>
</svg>
