<svg width="70" height="52" viewBox="0 0 70 52" fill="none" xmlns="http://www.w3.org/2000/svg">
<path d="M35.0445 0.400391C24.482 0.400391 14.5633 1.20039 9.28203 2.31914C5.76328 3.11914 2.71953 5.51914 2.08203 9.20039C1.44453 13.0379 0.800781 18.8004 0.800781 26.0004C0.800781 33.2004 1.43828 38.8004 2.23828 42.8004C2.88203 46.3191 5.91953 48.8816 9.43828 49.6816C15.0445 50.8004 24.6383 51.6004 35.2008 51.6004C45.7633 51.6004 55.357 50.8004 60.957 49.6816C64.482 48.8816 67.5195 46.4816 68.157 42.8004C68.8008 38.8004 69.6008 33.0441 69.757 25.8441C69.757 18.6441 68.957 12.8816 68.157 8.88164C67.5195 5.36289 64.482 2.80039 60.957 2.00039C55.357 1.20039 45.6008 0.400391 35.0445 0.400391ZM35.0445 3.60039C46.5633 3.60039 55.8383 4.55664 60.3195 5.35664C62.7195 6.00039 64.6383 7.60039 64.957 9.68164C65.9195 14.8004 66.557 20.2441 66.557 25.8441C66.4008 32.7191 65.6008 38.3191 64.957 42.3191C64.482 45.3566 61.282 46.3191 60.3195 46.6441C54.557 47.7629 44.957 48.5566 35.357 48.5566C25.757 48.5566 16.0008 47.9191 10.4008 46.6441C8.00078 46.0004 6.08203 44.4004 5.76328 42.3191C4.48203 37.8379 4.00078 31.9191 4.00078 26.0004C4.00078 18.6379 4.64453 13.2004 5.28203 9.84414C5.76328 6.80039 9.11953 5.83789 9.91953 5.51914C15.2008 4.40039 24.9633 3.60039 35.0445 3.60039ZM26.4008 13.2004V38.8004L48.8008 26.0004L26.4008 13.2004ZM29.6008 18.6441L42.4008 26.0004L29.6008 33.3566V18.6441Z" fill="#E4E4E4"/>
</svg>
