<svg width="42" height="32" viewBox="0 0 42 32" fill="none" xmlns="http://www.w3.org/2000/svg">
<path d="M21.1459 0.400391C14.8084 0.400391 8.85711 0.88039 5.68836 1.55164C3.57711 2.03164 1.75086 3.47164 1.36836 5.68039C0.98586 7.98289 0.599609 11.4404 0.599609 15.7604C0.599609 20.0804 0.98211 23.4404 1.46211 25.8404C1.84836 27.9516 3.67086 29.4891 5.78211 29.9691C9.14586 30.6404 14.9021 31.1204 21.2396 31.1204C27.5771 31.1204 33.3334 30.6404 36.6934 29.9691C38.8084 29.4891 40.6309 28.0491 41.0134 25.8404C41.3996 23.4404 41.8796 19.9866 41.9734 15.6666C41.9734 11.3466 41.4934 7.88914 41.0134 5.48914C40.6309 3.37789 38.8084 1.84039 36.6934 1.36039C33.3334 0.880391 27.4796 0.400391 21.1459 0.400391ZM21.1459 2.32039C28.0571 2.32039 33.6221 2.89414 36.3109 3.37414C37.7509 3.76039 38.9021 4.72039 39.0934 5.96914C39.6709 9.04039 40.0534 12.3066 40.0534 15.6666C39.9596 19.7916 39.4796 23.1516 39.0934 25.5516C38.8084 27.3741 36.8884 27.9516 36.3109 28.1466C32.8534 28.8179 27.0934 29.2941 21.3334 29.2941C15.5734 29.2941 9.71961 28.9116 6.35961 28.1466C4.91961 27.7604 3.76836 26.8004 3.57711 25.5516C2.80836 22.8629 2.51961 19.3116 2.51961 15.7604C2.51961 11.3429 2.90586 8.08039 3.28836 6.06664C3.57711 4.24039 5.59086 3.66289 6.07086 3.47164C9.23961 2.80039 15.0971 2.32039 21.1459 2.32039ZM15.9596 8.08039V23.4404L29.3996 15.7604L15.9596 8.08039ZM17.8796 11.3466L25.5596 15.7604L17.8796 20.1741V11.3466Z" fill="#110F04"/>
</svg>
